<?xml version="1.0" encoding="UTF-8"?>
<svg version="1.1" xmlns="http://www.w3.org/2000/svg" width="643" height="643">
<path d="M0 0 C0.98613281 0.5259375 0.98613281 0.5259375 1.9921875 1.0625 C8.53025526 5.10319424 11.62082474 11.5678726 13.375 18.875 C14.96515701 29.22208525 12.18374121 39.37055865 9.81640625 49.39453125 C3.05017893 78.98176194 8.12105271 110.28930869 21.6796875 137.2265625 C23 140 23 140 23 142 C23.66 142 24.32 142 25 142 C28 147.75 28 147.75 28 150 C28.66 150 29.32 150 30 150 C30.66 151.98 31.32 153.96 32 156 C35.74700855 155.52165848 39.3159177 154.92818542 42.96875 153.96875 C48.82288292 152.64915363 54.59099491 152.782151 60.5625 152.875 C64.336875 152.91625 68.11125 152.9575 72 153 C68.7 145.41 65.4 137.82 62 130 C68.13531842 125.90978772 77.48728988 128.74920876 84.4375 130.0625 C92.08170348 131.91280842 98.41404672 135.84304898 105 140 C105 140.66 105 141.32 105 142 C105.66 142 106.32 142 107 142 C108.5078125 143.4609375 108.5078125 143.4609375 110.125 145.375 C110.66382813 146.00148437 111.20265625 146.62796875 111.7578125 147.2734375 C113 149 113 149 113 151 C116.1268791 149.61867539 118.19920392 148.02096237 120.5625 145.5625 C121.14128906 144.96566406 121.72007812 144.36882812 122.31640625 143.75390625 C123.33808378 142.68956006 124.34240681 141.60765886 125.3125 140.49609375 C136.26628939 130.78474806 152.00789531 128.39066641 166 129 C166.33 129.66 166.66 130.32 167 131 C166.19555664 133.23071289 166.19555664 133.23071289 164.91015625 135.97265625 C164.45576172 136.95427734 164.00136719 137.93589844 163.53320312 138.94726562 C163.04787109 139.97529297 162.56253906 141.00332031 162.0625 142.0625 C161.11445589 144.0943857 160.1677646 146.12690335 159.22265625 148.16015625 C158.79734619 149.06386963 158.37203613 149.96758301 157.93383789 150.89868164 C156.93231518 152.76905803 156.93231518 152.76905803 157 154 C157.82242187 153.855625 158.64484375 153.71125 159.4921875 153.5625 C170.75114542 151.69034072 181.10878256 150.7405841 191.875 155.1875 C194.13257403 156.30813281 194.13257403 156.30813281 197 155 C198.6102225 152.71378953 198.6102225 152.71378953 200.0625 150 C202.79704433 145.10147783 202.79704433 145.10147783 205 144 C205.6933902 142.00910712 206.3542017 140.00683557 207 138 C208.12288526 135.58917887 209.26664652 133.19933489 210.4375 130.8125 C213.00405843 125.45694807 214.9938875 120.28013612 216.3828125 114.484375 C216.98949273 112.0422951 217.76885776 109.73958334 218.625 107.375 C219.95161853 103.54024331 220.48991501 99.88614738 220.7890625 95.84765625 C221 94 221 94 222 92 C224.25279499 75.98012455 222.85159521 59.76723138 218.9375 44.125 C215.83393045 31.60788837 214.61038856 20.61664467 220.6875 8.6875 C227.05142454 1.29158769 233.02961895 -3.52989126 242.96875 -4.3125 C251.21694655 -4.64001268 257.7636191 -4.2735608 265 0 C266.85001877 0.92500938 268.70427359 1.84159127 270.5625 2.75 C272.0426892 3.49797993 273.52223801 4.24723607 275 5 C275 5.66 275 6.32 275 7 C275.99 7 276.98 7 278 7 C280.37109375 9.18359375 280.37109375 9.18359375 283 12 C284.25490234 13.25490234 284.25490234 13.25490234 285.53515625 14.53515625 C288.0234375 17.0234375 290.51171875 19.51171875 293 22 C294.07701172 23.04414062 294.07701172 23.04414062 295.17578125 24.109375 C297.49154193 26.50943532 299.15356048 29.23034072 301 32 C301.66 32.33 302.32 32.66 303 33 C303 33.99 303 34.98 303 36 C303.66 36 304.32 36 305 36 C311.44296497 47.51924041 317.72259316 59.12816308 322.375 71.5 C322.61347656 72.13381592 322.85195313 72.76763184 323.09765625 73.4206543 C337.50882274 113.09821925 332.24358237 159.62239112 314.88867188 197.42041016 C307.0297606 213.64051964 296.67795326 228.83477207 284.6015625 242.20703125 C283.56642904 243.36587578 282.55857901 244.54994715 281.5859375 245.76171875 C277.92603813 250.311035 273.74769211 253.71024506 269.07421875 257.203125 C266.74627957 258.91118221 266.74627957 258.91118221 266 262 C267.03060547 262.38865234 267.03060547 262.38865234 268.08203125 262.78515625 C271.38926808 264.16206476 274.51019534 265.78302445 277.6875 267.4375 C283.30403696 270.3140998 288.86138473 272.51485114 295 274 C294.71213769 281.91621352 291.74950743 286.95784809 286.3984375 292.7265625 C281.8678117 296.91363374 276.5790516 299.46304696 271 302 C273.53919006 303.29673602 276.08114238 304.58747837 278.625 305.875 C279.33785156 306.23980469 280.05070312 306.60460937 280.78515625 306.98046875 C284.78751837 309.00000927 288.68917073 310.7081111 293 312 C293 312.66 293 313.32 293 314 C288.05 314.33 283.1 314.66 278 315 C282.28350552 318.44564908 282.28350552 318.44564908 286.8125 321.25 C287.864375 321.8275 288.91625 322.405 290 323 C290 323.66 290 324.32 290 325 C287.49693306 324.7691346 284.9993963 324.51589322 282.5 324.25 C281.80390625 324.188125 281.1078125 324.12625 280.390625 324.0625 C274.86410093 323.44844177 270.8621194 321.69387696 266 319 C265.85304688 320.16015625 265.70609375 321.3203125 265.5546875 322.515625 C263.98281818 333.81926812 261.40451572 342.39322642 255 352 C255.20209979 358.49643875 257.19845695 363.17415727 260.19140625 368.86328125 C260.61493881 369.69474167 261.03847137 370.52620209 261.47483826 371.38285828 C262.82599967 374.03209816 264.19289223 376.67275588 265.5625 379.3125 C274.02088955 395.69918929 282.06890155 412.1830653 287.8125 429.75 C288.08513672 430.54019531 288.35777344 431.33039063 288.63867188 432.14453125 C293.20828075 445.90788782 294.38813905 458.75636004 293.86303711 473.09594727 C293.56449017 481.99778221 294.25305628 489.52308407 297.02954102 498.00952148 C299.28529064 504.96063522 299.18347734 511.55964475 299.1875 518.8125 C299.19974609 519.96298828 299.21199219 521.11347656 299.22460938 522.29882812 C299.23546102 528.61086693 298.70983042 533.94036101 297 540 C296.85467972 542.39368069 296.85467972 542.39368069 297.1875 544.5625 C297.34605469 545.85027344 297.34605469 545.85027344 297.5078125 547.1640625 C297.84912267 549.1306592 298.266342 551.0849932 298.7421875 553.0234375 C302.96265423 570.58861807 302.5092641 589.54704516 298 607 C296.56305606 612.59158621 297.6127164 616.95401059 298.9375 622.4375 C299.32854317 624.08039753 299.71278935 625.72492941 300.08984375 627.37109375 C300.35075806 628.4528186 300.35075806 628.4528186 300.61694336 629.55639648 C301 632 301 632 301 639 C178.24 639 55.48 639 -71 639 C-69.89420935 625.73051225 -69.89420935 625.73051225 -68.375 620.25 C-67.07000213 614.90269167 -66.83797206 611.36320589 -68 606 C-68.16113281 605.24976563 -68.32226562 604.49953125 -68.48828125 603.7265625 C-68.81194985 602.23916937 -69.1476748 600.75430435 -69.5 599.2734375 C-73.13493577 582.74583891 -72.58668935 562.60494252 -67.25 546.5 C-65.8713876 542.27455299 -66.16136646 540.13692545 -68 536 C-70.68460778 521.42371412 -69.90674836 506.34317615 -65.69091797 492.17919922 C-63.94057312 486.08927838 -64.10094227 481.23606103 -65 475 C-66.3586462 450.70235056 -59.04141796 426.28007472 -47.9375 404.8125 C-45.78770376 400.5885285 -43.80393997 396.38099708 -42 392 C-39.66036675 386.43111248 -37.14576137 380.95978113 -34.5625 375.5 C-34.18029297 374.68402344 -33.79808594 373.86804688 -33.40429688 373.02734375 C-31.64777335 369.31150621 -29.85457919 365.66588435 -27.78515625 362.11328125 C-25.64885783 358.3876142 -24.85364975 356.31733224 -25 352 C-26.30309795 349.48720021 -27.81757444 347.17549188 -29.36328125 344.8046875 C-34.01355436 336.83596174 -35.74226286 328.1339568 -35 319 C-35.88300781 319.3609375 -36.76601562 319.721875 -37.67578125 320.09375 C-45.37279165 323.07003759 -51.62072305 324.76952543 -60 324 C-56.51651796 320.24595625 -52.27094604 317.78539959 -48 315 C-52.95 314.67 -57.9 314.34 -63 314 C-63 313.34 -63 312.68 -63 312 C-62.32195312 311.78085937 -61.64390625 311.56171875 -60.9453125 311.3359375 C-54.05133611 308.98702034 -48.09901057 305.96898736 -42 302 C-42.71285156 301.64808594 -43.42570312 301.29617188 -44.16015625 300.93359375 C-54.49616733 295.60560957 -60.72585399 289.98561494 -65 279 C-65.37408798 277.34200511 -65.71960807 275.67638577 -66 274 C-64.97261719 273.72027344 -63.94523437 273.44054687 -62.88671875 273.15234375 C-54.78105729 270.84218123 -48.00049954 268.28736297 -41.0390625 263.35546875 C-39 262 -39 262 -37 262 C-37.36407406 257.45978236 -40.65906454 255.2846239 -43.875 252.5 C-59.24959125 238.70712196 -70.93394926 222.98296291 -81 205 C-81.34804687 204.37931641 -81.69609375 203.75863281 -82.0546875 203.11914062 C-102.45851152 166.10844479 -106.77404659 120.03702746 -95.16015625 79.54296875 C-93.09166338 73.22605619 -90.60912239 67.11001005 -88 61 C-87.71769531 60.33387695 -87.43539062 59.66775391 -87.14453125 58.98144531 C-85.44785788 54.9796761 -83.73221188 50.98654436 -82 47 C-81.34 47 -80.68 47 -80 47 C-79.773125 46.360625 -79.54625 45.72125 -79.3125 45.0625 C-76.44601605 38.37403744 -73.32159627 33.03394242 -68 28 C-67.69707031 27.36191406 -67.39414063 26.72382813 -67.08203125 26.06640625 C-65.82568584 23.667104 -64.46228436 22.46307003 -62.375 20.75 C-57.49796973 16.62806549 -52.96627705 12.18117175 -48.61157227 7.51098633 C-46.95864523 5.96122638 -45.47118445 5.04197031 -43.453125 4.02734375 C-42.7725 3.68509766 -42.091875 3.34285156 -41.390625 2.99023438 C-40.33101562 2.46913086 -40.33101562 2.46913086 -39.25 1.9375 C-38.5590625 1.58623047 -37.868125 1.23496094 -37.15625 0.87304688 C-25.07064761 -5.13567837 -12.16144908 -6.62559233 0 0 Z " fill="#080708" transform="translate(207,4)"/>
<path d="M0 0 C9.7850245 3.05782016 17.54345034 11.21861573 22.21484375 20.0703125 C24.22138097 24.01085097 26.12822057 27.99390584 28 32 C28.41958984 30.87464844 28.41958984 30.87464844 28.84765625 29.7265625 C33.26603571 18.44619821 39.06223031 9.20128238 49 2 C52.5625 0.5 52.5625 0.5 55 0 C54.58556473 1.27156277 54.16824702 2.5421859 53.75 3.8125 C53.47929687 4.63621094 53.20859375 5.45992187 52.9296875 6.30859375 C52.30851168 8.10687165 51.64652202 9.89155001 50.9453125 11.66015625 C48.38787775 18.14708017 47.26946327 24.03437439 47 31 C47.61746094 30.54109375 48.23492187 30.0821875 48.87109375 29.609375 C59.40198313 21.97968954 69.28732461 17.5994927 82.4375 17.875 C83.67790039 17.88853516 83.67790039 17.88853516 84.94335938 17.90234375 C86.96236708 17.92568488 88.98122356 17.96154712 91 18 C89.2005088 19.1996608 87.3867581 20.37888194 85.546875 21.515625 C77.40669339 26.56344712 71.20976373 30.88717138 66 39 C67.28970703 38.566875 67.28970703 38.566875 68.60546875 38.125 C77.03677739 35.47699903 84.12796716 34.46944654 93 35 C91.46162154 38.19624262 89.71133468 41.21605574 87.875 44.25 C87.33617187 45.14203125 86.79734375 46.0340625 86.2421875 46.953125 C85.83226562 47.62859375 85.42234375 48.3040625 85 49 C85.84175781 48.83886719 86.68351563 48.67773438 87.55078125 48.51171875 C97.41690236 47.04800203 107.31878424 47.74574602 117 50 C117 50.66 117 51.32 117 52 C115.15317545 53.36081809 113.24529085 54.63931948 111.3125 55.875 C107.36291105 58.41161024 103.61792218 61.00632043 100 64 C100.85980469 64.15855469 101.71960938 64.31710938 102.60546875 64.48046875 C118.114384 67.5416614 132.32890768 72.95977753 144 84 C144 84.66 144 85.32 144 86 C142.85660156 86.13277344 141.71320313 86.26554687 140.53515625 86.40234375 C139.0442438 86.5805031 137.55335982 86.75890082 136.0625 86.9375 C135.30775391 87.02451172 134.55300781 87.11152344 133.77539062 87.20117188 C130.07812542 87.34324099 130.07812542 87.34324099 127 89 C127.70382812 89.20753906 128.40765625 89.41507812 129.1328125 89.62890625 C141.0444183 93.34545166 152.78335415 98.36853801 162 107 C162 107.33 162 107.66 162 108 C160.99839844 108.04898438 159.99679687 108.09796875 158.96484375 108.1484375 C157.62237241 108.22354079 156.2799257 108.29908526 154.9375 108.375 C153.62652344 108.44460938 152.31554687 108.51421875 150.96484375 108.5859375 C147.01863043 108.99805436 143.75882927 109.79756567 140 111 C140.53141602 111.1544458 141.06283203 111.3088916 141.61035156 111.46801758 C156.72552748 115.95240221 172.74848341 121.68689541 185 132 C185 132.66 185 133.32 185 134 C182.54724859 135.2263757 180.9494219 135.11415314 178.2109375 135.09765625 C177.26992188 135.09443359 176.32890625 135.09121094 175.359375 135.08789062 C174.37453125 135.07951172 173.3896875 135.07113281 172.375 135.0625 C171.38242187 135.05798828 170.38984375 135.05347656 169.3671875 135.04882812 C166.9113984 135.03702145 164.45572896 135.020554 162 135 C162.3609375 135.48210937 162.721875 135.96421875 163.09375 136.4609375 C163.5578125 137.09257812 164.021875 137.72421875 164.5 138.375 C164.9640625 139.00148438 165.428125 139.62796875 165.90625 140.2734375 C167 142 167 142 167 144 C166.4016333 144.0093457 165.8032666 144.01869141 165.18676758 144.02832031 C145.90798239 144.40600899 130.04123025 146.64435336 115.37109375 160.26171875 C107.81971311 168.98250595 104.80520409 178.92487482 104.9375 190.3125 C104.94426758 191.42334961 104.94426758 191.42334961 104.95117188 192.55664062 C104.96287825 194.37112899 104.98081102 196.18557534 105 198 C105.66 198 106.32 198 107 198 C107.061875 197.030625 107.12375 196.06125 107.1875 195.0625 C108.14536531 188.31639144 112.41630612 181.8998107 117 177 C117.66 177 118.32 177 119 177 C119.09796875 177.90621094 119.1959375 178.81242188 119.296875 179.74609375 C120.71147129 191.27017556 123.1593993 200.03785222 132 208 C137.82299752 211.45066519 143.5829176 211.94825439 150.12890625 210.54296875 C151.76869132 210.08250385 153.38765678 209.5488828 155 209 C153.403147 216.09712444 148.93701282 221.04199145 143 225 C136.29910422 227.30438045 127.61237398 227.3671008 121.02734375 224.875 C118.90412509 223.69057374 116.93533129 222.46854407 115 221 C118.91910684 227.69514085 124.39985166 233.6935966 132 236 C140.58495802 236.82677087 147.68246908 236.7787957 155 232 C163.78078014 262.7327305 160.57192681 298.02951324 145.04345703 326.0246582 C141.86016902 331.48573528 138.25102408 336.33351807 134 341 C132.69095703 342.44826172 132.69095703 342.44826172 131.35546875 343.92578125 C117.13440946 359.14250897 98.95173395 368.44251009 79 374 C78.34 374 77.68 374 77 374 C77 372 77 372 79.22265625 369.76171875 C80.13917969 368.85035156 81.05570313 367.93898438 82 367 C89.59217224 357.13677798 93.75791988 346.92274966 97 335 C97.3403125 333.77667969 97.680625 332.55335938 98.03125 331.29296875 C101.62501664 316.20247642 102.10658296 299.44861147 96 285 C96.03480469 286.11117188 96.06960938 287.22234375 96.10546875 288.3671875 C96.4335101 303.16901272 93.90159551 313.59978463 84 325 C80.51679241 327.65026665 76.79921739 329.83284079 73 332 C72.37351562 332.36738281 71.74703125 332.73476563 71.1015625 333.11328125 C66.44239854 335.33745228 61.51082764 335.33399588 56.4375 335.4375 C55.71675293 335.45997803 54.99600586 335.48245605 54.25341797 335.50561523 C48.7405556 335.48099861 45.55320313 334.11088413 41 331 C33.53085591 323.36110263 31.87991604 315.09997765 31.75 304.75 C31.87719673 293.90647901 33.88645631 287.56980705 41.0546875 279.38671875 C42.86170757 277.16967204 43.84609284 275.27167023 45 272.6875 C47.82090568 267.83359678 52.97863095 267.15688596 58.04370117 265.78955078 C65.03045103 263.86656253 68.80158634 261.09151921 73 255.1875 C74.317307 250.98858394 74.27247128 247.22814824 73 243 C70.00050541 239.34331278 66.49741802 238.30478508 61.85546875 237.73828125 C57.29898601 237.51317393 53.53411461 237.8939236 49.61328125 240.5078125 C43.52710058 246.13716121 40.60521009 254.8152496 37.62304688 262.37792969 C35.79603524 266.83154438 33.78685456 269.85539597 30 273 C26.60678202 273.1696609 25.23207574 272.16825491 22.5 270.1875 C19.34130976 266.77296569 17.99712924 262.47860403 16.31640625 258.2109375 C12.91722841 249.91976782 9.69321294 242.53031686 1.1875 238.75 C-4.41315612 237.43219856 -8.28688592 237.06557414 -13.4375 239.875 C-16.03874519 241.74164041 -16.03874519 241.74164041 -17 244 C-17.4269018 249.51993955 -17.519843 254.960314 -15 260 C-13.12833889 261.08186345 -13.12833889 261.08186345 -11 262 C-10.40960938 262.31839844 -9.81921875 262.63679688 -9.2109375 262.96484375 C-5.44365332 264.96070282 -2.1904983 266.1812411 2 267 C9.04094376 268.95461782 11.49395184 275.0713177 15 281 C16.54617922 283.10280374 18.14218185 285.14680247 19.7734375 287.18359375 C23.69873104 292.99652845 23.40041294 298.92529334 23.4375 305.6875 C23.47037109 306.72583984 23.50324219 307.76417969 23.53710938 308.83398438 C23.59212554 316.81132875 21.96505719 323.57277831 16.52124023 329.65112305 C9.66233503 335.7328838 2.26429414 335.66803919 -6.40625 335.4375 C-16.65079793 334.76462329 -25.30924413 328.48760154 -32 321 C-34.06910311 318.13229569 -35.6066146 315.24576834 -37 312 C-37.31839844 311.27554687 -37.63679688 310.55109375 -37.96484375 309.8046875 C-40.90926633 301.79911459 -40.26291641 293.39384987 -40 285 C-40.474375 286.051875 -40.94875 287.10375 -41.4375 288.1875 C-41.70433594 288.77917969 -41.97117187 289.37085938 -42.24609375 289.98046875 C-48.91881289 307.85505837 -43.59203566 332.77648481 -36.5546875 349.8671875 C-33.555445 355.91088721 -29.80402144 361.44027635 -26 367 C-24.6621316 368.99701059 -23.33126423 370.99857554 -22 373 C-44.0057512 370.71550464 -65.67036167 356.58541456 -79.5378418 339.77514648 C-81.7910781 336.9174313 -83.92302092 333.9876883 -86 331 C-86.65613281 330.05898438 -87.31226563 329.11796875 -87.98828125 328.1484375 C-91.81998433 322.11626635 -94.40130171 315.75790336 -96.8125 309.0625 C-97.10286133 308.26440918 -97.39322266 307.46631836 -97.69238281 306.64404297 C-101.73311071 294.81525333 -102.32851103 282.94789855 -102.26074219 270.57226562 C-102.25007704 268.26665564 -102.26067233 265.96183568 -102.2734375 263.65625 C-102.28169467 253.31002086 -101.42719411 243.24393767 -100 233 C-98.205625 233.7425 -98.205625 233.7425 -96.375 234.5 C-88.69544743 237.01947466 -79.60343225 237.78750945 -72.1875 234.125 C-66.91645682 230.70674831 -62.95581137 225.81617696 -59 221 C-59.53109375 221.27714844 -60.0621875 221.55429687 -60.609375 221.83984375 C-61.31578125 222.20207031 -62.0221875 222.56429687 -62.75 222.9375 C-63.79414063 223.47697266 -63.79414063 223.47697266 -64.859375 224.02734375 C-71.36302869 226.98247107 -79.56598502 227.18908964 -86.41796875 225.3515625 C-92.63281329 222.53865414 -96.86059629 217.84850928 -99.375 211.5625 C-99.58125 210.716875 -99.7875 209.87125 -100 209 C-99.47921875 209.15855469 -98.9584375 209.31710937 -98.421875 209.48046875 C-91.11287853 211.04836638 -82.20571735 211.40588101 -75.671875 207.37109375 C-67.43982459 200.62004307 -64.58093054 190.45207386 -63.25 180.1875 C-63.1675 179.135625 -63.085 178.08375 -63 177 C-58.15475052 178.61508316 -56.36103152 182.6354822 -54 187 C-52.45706601 190.94462636 -51.17058506 194.93049545 -50 199 C-47.98801844 187.68260372 -48.25091036 177.59116143 -54.5078125 167.58984375 C-61.07186944 158.69020376 -68.84532939 152.33759109 -79 148 C-79.77859375 147.64679688 -80.5571875 147.29359375 -81.359375 146.9296875 C-87.93309805 144.61527021 -95.03897368 144.72513507 -101.9375 144.4375 C-102.90751953 144.39431641 -103.87753906 144.35113281 -104.87695312 144.30664062 C-107.25118601 144.20137907 -109.62550921 144.09924293 -112 144 C-110.28564986 140.44774296 -108.22257977 137.25978366 -106 134 C-106.81726563 134.16371094 -107.63453125 134.32742188 -108.4765625 134.49609375 C-112.48768176 135.06974606 -116.33248121 135.11001604 -120.375 135.0625 C-121.11105469 135.05798828 -121.84710938 135.05347656 -122.60546875 135.04882812 C-124.40368158 135.03715142 -126.20185197 135.01922011 -128 135 C-128 133.68 -128 132.36 -128 131 C-126.53808594 129.61547852 -126.53808594 129.61547852 -124.484375 128.37890625 C-123.73357666 127.92064453 -122.98277832 127.46238281 -122.20922852 126.99023438 C-121.39768311 126.51908203 -120.5861377 126.04792969 -119.75 125.5625 C-118.92749756 125.07458984 -118.10499512 124.58667969 -117.25756836 124.08398438 C-108.2297523 118.82077556 -99.23610545 115.07669548 -89.08203125 112.578125 C-87.02754398 112.19159114 -87.02754398 112.19159114 -86 111 C-90.35590568 109.37150031 -94.23934612 108.65881554 -98.875 108.375 C-100.02742188 108.30023438 -101.17984375 108.22546875 -102.3671875 108.1484375 C-103.67042969 108.07496094 -103.67042969 108.07496094 -105 108 C-97.86379695 98.06460835 -84.4307824 92.51716381 -73 89 C-74.95151627 87.04848373 -78.45168745 87.29031251 -81.0625 86.9375 C-82.35285156 86.76089844 -83.64320313 86.58429688 -84.97265625 86.40234375 C-85.97167969 86.26957031 -86.97070312 86.13679688 -88 86 C-84.71713746 77.70062842 -73.67946351 72.8940488 -66.0546875 69.25 C-58.9947461 66.36102142 -51.55943657 64.85902688 -44 64 C-49.83405626 59.65346984 -55.5733894 55.42752566 -62 52 C-60.26041794 49.7772007 -59.23100071 49.05298181 -56.4453125 48.4140625 C-52.27711468 47.91312263 -48.19415569 47.81596052 -44 47.8125 C-43.21882813 47.80025391 -42.43765625 47.78800781 -41.6328125 47.77539062 C-37.01887656 47.76373927 -33.34273329 48.23924436 -29 50 C-30.12383992 48.06182687 -31.24911321 46.12448482 -32.375 44.1875 C-33.00148438 43.10855469 -33.62796875 42.02960938 -34.2734375 40.91796875 C-35.46055346 38.91168907 -36.70689373 36.93965941 -38 35 C-28.52276462 34.39827077 -20.09718079 36.63599942 -11 39 C-16.82743293 29.75478995 -25.49274852 24.07053412 -35 19 C-35 18.67 -35 18.34 -35 18 C-17.93068613 17.59519414 -3.32064352 20.48642052 10 32 C8.35223273 22.09770335 5.40586275 13.48959519 1.42578125 4.32421875 C0 1 0 1 0 0 Z " fill="#E9E8E8" transform="translate(294,154)"/>
<path d="M0 0 C0.33 0 0.66 0 1 0 C1.01981934 0.73935791 1.03963867 1.47871582 1.06005859 2.24047852 C1.29258204 10.49763015 1.60074655 18.74917414 2 27 C2.03786621 27.78552246 2.07573242 28.57104492 2.11474609 29.38037109 C3.47003796 52.14584339 14.72369123 74.69176612 29 92 C29.78503906 93.01513672 29.78503906 93.01513672 30.5859375 94.05078125 C34.95468944 99.5432873 40.47126462 103.73126647 46 108 C46.74765625 108.58652344 47.4953125 109.17304687 48.265625 109.77734375 C59.6257796 118.21801806 72.6437897 125.14390468 86.48071289 128.29150391 C93.42733494 129.96842241 96.43948459 134.20881036 100.73901367 139.60498047 C113.27632346 155.18815578 130.10829922 164.45881349 149.95263672 166.80078125 C170.24446136 168.7752779 188.8157019 163.92666622 205.5 152 C206.68554025 151.02244927 207.8526894 150.02214945 209 149 C209.97453125 148.18015625 209.97453125 148.18015625 210.96875 147.34375 C218.05436705 140.91218991 223.1014934 132.27673157 226.328125 123.30859375 C228.42290693 119.16307904 230.32344252 118.18890843 234.4375 116.125 C235.70901304 115.45016178 236.9772001 114.7690239 238.2421875 114.08203125 C238.87608398 113.73865723 239.50998047 113.3952832 240.16308594 113.04150391 C264.52887904 99.22644896 280.63193414 74.48158274 288 48 C288.19223145 47.319375 288.38446289 46.63875 288.58251953 45.9375 C292.5995305 31.15978931 292.80980407 16.23698908 293 1 C295.11617264 3.65522246 296.63189987 6.12814015 297.90234375 9.2734375 C298.23347168 10.09150879 298.56459961 10.90958008 298.90576172 11.75244141 C299.24623535 12.61788574 299.58670898 13.48333008 299.9375 14.375 C300.29086426 15.26751465 300.64422852 16.1600293 301.00830078 17.07958984 C305.57337517 28.80300423 310 41.31140649 310 54 C302.575 50.04 302.575 50.04 295 46 C295.64066406 47.29550781 296.28132813 48.59101563 296.94140625 49.92578125 C301.3280403 58.89967835 305.54365457 67.87173852 309 77.25 C309.27787354 77.99805908 309.55574707 78.74611816 309.84204102 79.5168457 C312.43932248 86.76931077 314.3033041 93.80627155 314.125 101.5625 C314.10695313 102.59503906 314.08890625 103.62757813 314.0703125 104.69140625 C314.04710937 105.45324219 314.02390625 106.21507812 314 107 C310.01287679 105.16753428 306.41915496 102.76144225 302.75 100.375 C302.1003125 99.95476562 301.450625 99.53453125 300.78125 99.1015625 C299.18631119 98.06954327 297.59299331 97.03501972 296 96 C296.66052782 99.05115373 297.68676018 101.65487639 299.0390625 104.46484375 C309.42604876 126.42381333 318.03995172 148.34929253 317 173 C313.45915558 171.50533204 311.3151643 169.46451644 308.6875 166.6875 C305.02166271 162.92455444 301.37857684 159.88799749 297 157 C297.56267578 158.36318359 297.56267578 158.36318359 298.13671875 159.75390625 C303.74645496 173.46167232 308.17826927 187.18261549 311.75 201.5625 C312.05607178 202.76922363 312.36214355 203.97594727 312.67749023 205.21923828 C314.69868512 213.58213788 315.58174317 221.40922478 316 230 C321.28 230 326.56 230 332 230 C331.67 228.68 331.34 227.36 331 226 C330.87794671 223.32459184 330.95532687 220.68038762 331 218 C331.33 218 331.66 218 332 218 C332.33 222.29 332.66 226.58 333 231 C215.85 231 98.7 231 -22 231 C-21.3903351 223.68402115 -20.82498067 216.99888348 -19.25 209.9375 C-19.0744458 209.13441406 -18.8988916 208.33132813 -18.71801758 207.50390625 C-18.16075229 204.9987732 -17.58509056 202.49877318 -17 200 C-16.81421387 199.20609863 -16.62842773 198.41219727 -16.43701172 197.59423828 C-13.67672184 186.0267422 -10.01271227 174.96704745 -5.67675781 163.89672852 C-4.98264733 161.95136619 -4.46808937 160.01060582 -4 158 C-9.33074552 162.05975759 -14.49400809 166.22375731 -19.46875 170.71484375 C-21 172 -21 172 -22 172 C-24.1683673 145.41742311 -13.38169641 119.01538862 -1 96 C-1.78503906 96.45890625 -2.57007813 96.9178125 -3.37890625 97.390625 C-8.9055082 100.61843178 -14.43532159 103.8382509 -20 107 C-21.8868738 90.12296215 -14.23223572 72.88847186 -7 58 C-6.70496582 57.39172363 -6.40993164 56.78344727 -6.10595703 56.15673828 C-4.44297361 52.7507938 -2.74078193 49.36678703 -1 46 C-2.13888672 46.63228516 -2.13888672 46.63228516 -3.30078125 47.27734375 C-4.29464844 47.82519531 -5.28851563 48.37304688 -6.3125 48.9375 C-7.29863281 49.48277344 -8.28476563 50.02804687 -9.30078125 50.58984375 C-12 52 -12 52 -15 53 C-15.45396301 35.1572798 -8.13673008 15.69356465 0 0 Z " fill="#D89FA8" transform="translate(175,412)"/>
<path d="M0 0 C0.33 0 0.66 0 1 0 C1.01981934 0.73935791 1.03963867 1.47871582 1.06005859 2.24047852 C1.29258204 10.49763015 1.60074655 18.74917414 2 27 C2.03786621 27.78552246 2.07573242 28.57104492 2.11474609 29.38037109 C3.47003796 52.14584339 14.72369123 74.69176612 29 92 C29.78503906 93.01513672 29.78503906 93.01513672 30.5859375 94.05078125 C34.33034834 98.75834979 38.9119581 102.35361701 43.609375 106.08203125 C47.81560681 109.45663879 48.77250402 112.26595364 50.1875 117.3125 C57.62301471 142.09569802 75.34600291 160.28926781 97.44921875 172.98046875 C105.43319117 177.17361888 113.28000387 179.86638392 122 182 C122 182.33 122 182.66 122 183 C118.08348097 183.08859875 114.16722626 183.14091917 110.25 183.1875 C109.15816406 183.21263672 108.06632813 183.23777344 106.94140625 183.26367188 C99.20141656 183.33237001 92.40854725 182.22909817 85 180 C85 180.66 85 181.32 85 182 C85.53625 182.25265625 86.0725 182.5053125 86.625 182.765625 C89.52450237 184.27260321 92.23806835 186.0034844 95 187.75 C113.65230714 199.2833258 131.13610326 204.23626343 153.0625 204.375 C153.76954071 204.37989441 154.47658142 204.38478882 155.20504761 204.38983154 C168.001137 204.42635202 179.71004805 202.66636581 192 199 C193.36288886 198.61060318 194.72613477 198.22245237 196.08984375 197.8359375 C197.05019531 197.56007813 198.01054687 197.28421875 199 197 C195.99564586 209.01741655 189.23839621 219.77486527 184 231 C116.02 231 48.04 231 -22 231 C-21.3903351 223.68402115 -20.82498067 216.99888348 -19.25 209.9375 C-19.0744458 209.13441406 -18.8988916 208.33132813 -18.71801758 207.50390625 C-18.16075229 204.9987732 -17.58509056 202.49877318 -17 200 C-16.81421387 199.20609863 -16.62842773 198.41219727 -16.43701172 197.59423828 C-13.67672184 186.0267422 -10.01271227 174.96704745 -5.67675781 163.89672852 C-4.98264733 161.95136619 -4.46808937 160.01060582 -4 158 C-9.33074552 162.05975759 -14.49400809 166.22375731 -19.46875 170.71484375 C-21 172 -21 172 -22 172 C-24.1683673 145.41742311 -13.38169641 119.01538862 -1 96 C-1.78503906 96.45890625 -2.57007813 96.9178125 -3.37890625 97.390625 C-8.9055082 100.61843178 -14.43532159 103.8382509 -20 107 C-21.8868738 90.12296215 -14.23223572 72.88847186 -7 58 C-6.70496582 57.39172363 -6.40993164 56.78344727 -6.10595703 56.15673828 C-4.44297361 52.7507938 -2.74078193 49.36678703 -1 46 C-2.13888672 46.63228516 -2.13888672 46.63228516 -3.30078125 47.27734375 C-4.29464844 47.82519531 -5.28851563 48.37304688 -6.3125 48.9375 C-7.29863281 49.48277344 -8.28476563 50.02804687 -9.30078125 50.58984375 C-12 52 -12 52 -15 53 C-15.45396301 35.1572798 -8.13673008 15.69356465 0 0 Z " fill="#E2C596" transform="translate(175,412)"/>
<path d="M0 0 C25.20526417 11.24836694 41.18464679 37.20182151 51.1875 61.8125 C55.49534726 73.74309826 58.40935421 86.20031689 58.55078125 98.91015625 C58.56062042 99.63983612 58.57045959 100.36951599 58.58059692 101.12130737 C59.11710769 151.27608904 43.19739347 189.65347031 8 225.625 C5.05673549 228.62039963 3.13215994 230.21517003 -0.6875 232.125 C-3.6575 229.155 -6.6275 226.185 -9.6875 223.125 C-8.37706943 219.19370829 -6.99738726 219.00431894 -3.375 217.125 C12.20185845 208.28457915 23.81339996 193.68875282 32.3125 178.125 C31.43851563 178.97771484 31.43851563 178.97771484 30.546875 179.84765625 C23.42975521 186.55072976 15.30067269 193.66952857 5.3125 195.125 C8.41939484 191.39672619 11.52846096 187.88823186 15.0625 184.5625 C25.679747 174.02645566 33.84831779 160.37604321 38.3125 146.125 C37.65765625 146.8984375 37.0028125 147.671875 36.328125 148.46875 C29.97773789 155.77939368 23.69759901 161.14954858 15.3125 166.125 C14.6525 165.795 13.9925 165.465 13.3125 165.125 C14.13041016 164.320625 14.13041016 164.320625 14.96484375 163.5 C31.78257849 146.02105517 39.7197698 122.95648011 39.3828125 98.984375 C39.35960937 98.04078125 39.33640625 97.0971875 39.3125 96.125 C39.09335937 96.86363281 38.87421875 97.60226563 38.6484375 98.36328125 C34.84991289 110.51547178 29.08418452 123.59893222 18.3125 131.125 C18.47105469 130.61195313 18.62960937 130.09890625 18.79296875 129.5703125 C20.57783944 123.71278106 22.27306387 117.83019425 23.9375 111.9375 C24.15559326 111.17775879 24.37368652 110.41801758 24.59838867 109.63525391 C29.52097108 92.07619394 30.16161444 70.86043329 22.3125 54.125 C22.27286133 54.73794922 22.23322266 55.35089844 22.19238281 55.98242188 C20.46153387 81.55308521 20.46153387 81.55308521 16.3125 93.125 C15.3225 93.62 15.3225 93.62 14.3125 94.125 C14.29791748 93.53710693 14.28333496 92.94921387 14.26831055 92.34350586 C13.57306513 67.15007219 9.82088874 44.02883108 -6.98828125 24.1484375 C-8.6875 22.125 -8.6875 22.125 -10.6875 19.125 C-10.44515625 20.03636719 -10.2028125 20.94773437 -9.953125 21.88671875 C-7.00133099 33.2034154 -4.63637858 44.59376 -2.6875 56.125 C-2.56600586 56.82689453 -2.44451172 57.52878906 -2.31933594 58.25195312 C5.0236571 102.74829897 -3.10310578 149.75921671 -20.5 190.875 C-20.88510742 191.78709229 -21.27021484 192.69918457 -21.66699219 193.63891602 C-22.03083008 194.47479248 -22.39466797 195.31066895 -22.76953125 196.171875 C-23.09155518 196.91276367 -23.4135791 197.65365234 -23.74536133 198.41699219 C-24.6875 200.125 -24.6875 200.125 -26.6875 201.125 C-29.5078125 199.91015625 -29.5078125 199.91015625 -32.8125 198.1875 C-33.90820312 197.62160156 -35.00390625 197.05570313 -36.1328125 196.47265625 C-37.39738281 195.80556641 -37.39738281 195.80556641 -38.6875 195.125 C-38.6875 194.465 -38.6875 193.805 -38.6875 193.125 C-35.7175 191.475 -32.7475 189.825 -29.6875 188.125 C-31.03016196 181.41169022 -34.23755807 178.99976551 -39.6875 175.125 C-45.57234199 172.21839978 -52.27098304 171.26363036 -58.6875 170.125 C-57.40433917 167.40191377 -55.99680108 165.06445135 -54.1484375 162.69140625 C-53.65448486 162.04969482 -53.16053223 161.4079834 -52.65161133 160.74682617 C-52.12720459 160.06724854 -51.60279785 159.3876709 -51.0625 158.6875 C-25.32648532 124.70399217 -11.8178694 83.65080349 -17.265625 40.85546875 C-18.22307032 34.69780723 -19.78504493 28.70661562 -21.375 22.6875 C-23.10251126 15.98879941 -24.12400033 10.05120437 -21 3.6875 C-14.67345652 -3.32299413 -8.395601 -3.12342939 0 0 Z " fill="#E6E5E5" transform="translate(462.6875,17.875)"/>
<path d="M0 0 C4.28440052 3.78621441 6.44278879 6.47848811 7.1875 12.25 C6.96300656 17.36154301 5.62826697 22.26062345 4.28710938 27.17529297 C1.31722485 38.07126229 0.37120168 48.32113669 0.4375 59.625 C0.42976563 60.92824219 0.42203125 62.23148438 0.4140625 63.57421875 C0.44048127 76.90248686 2.00383903 89.55089161 5.875 102.3125 C6.33628296 103.85635376 6.33628296 103.85635376 6.80688477 105.43139648 C9.46298979 114.08419802 12.68401214 122.2659831 16.6875 130.375 C16.98205078 130.99101074 17.27660156 131.60702148 17.58007812 132.24169922 C22.4036617 142.26652276 28.55336466 150.84844164 35.35449219 159.62011719 C37.9830051 163.08051111 40.36344595 166.70544097 42.6875 170.375 C41.79289062 170.53355469 40.89828125 170.69210938 39.9765625 170.85546875 C29.44875624 172.88695375 20.6298116 175.2023433 13.6484375 183.7265625 C12.43569179 185.48895132 12.43569179 185.48895132 12.6875 188.375 C17.6375 190.85 17.6375 190.85 22.6875 193.375 C22.6875 194.035 22.6875 194.695 22.6875 195.375 C20.75641037 196.40790841 18.817382 197.42598672 16.875 198.4375 C15.25658203 199.29021484 15.25658203 199.29021484 13.60546875 200.16015625 C10.6875 201.375 10.6875 201.375 7.6875 200.375 C6.6159668 198.65112305 6.6159668 198.65112305 5.63671875 196.38671875 C5.27094727 195.54560547 4.90517578 194.70449219 4.52832031 193.83789062 C3.95742676 192.46407227 3.95742676 192.46407227 3.375 191.0625 C2.77896973 189.64420898 2.77896973 189.64420898 2.17089844 188.19726562 C-1.70214182 178.77025429 -4.68106237 169.21091856 -7.3125 159.375 C-7.53389648 158.58287109 -7.75529297 157.79074219 -7.98339844 156.97460938 C-20.58926017 111.54908118 -17.94368675 65.63581467 -6.3125 20.375 C-25.18593553 41.76123015 -30.11987313 65.41103846 -31.3125 93.375 C-34.0264581 90.6610419 -34.50920022 87.68957679 -35.375 84.0625 C-35.5512793 83.32717041 -35.72755859 82.59184082 -35.90917969 81.83422852 C-37.97137149 72.45398462 -38.12541671 62.94431003 -38.3125 53.375 C-38.94446384 54.87207939 -39.56764393 56.37286703 -40.1875 57.875 C-40.70957031 59.12796875 -40.70957031 59.12796875 -41.2421875 60.40625 C-48.32796988 80.06024493 -45.56195459 104.40858483 -37.5 123.4375 C-37.06042969 124.35660156 -36.62085938 125.27570313 -36.16796875 126.22265625 C-35.74451172 127.28806641 -35.74451172 127.28806641 -35.3125 128.375 C-35.6425 129.035 -35.9725 129.695 -36.3125 130.375 C-45.87027439 120.33205939 -51.06628709 110.41425556 -55.3125 97.375 C-56.37313904 122.83033704 -48.66601629 142.22707714 -33.3125 162.375 C-32.6525 163.365 -31.9925 164.355 -31.3125 165.375 C-36.07695769 163.83196541 -39.46851001 161.15494067 -43.3125 158.0625 C-43.91578125 157.58876953 -44.5190625 157.11503906 -45.140625 156.62695312 C-48.77316507 153.74066313 -52.09646758 150.7189428 -55.3125 147.375 C-46.14828513 166.34611493 -35.3404943 180.68096113 -20.3125 195.375 C-20.9725 195.705 -21.6325 196.035 -22.3125 196.375 C-30.19682698 193.32458956 -36.90608039 188.80845253 -43.3125 183.375 C-43.93511719 182.86195313 -44.55773437 182.34890625 -45.19921875 181.8203125 C-46.57871753 180.68198483 -47.94716773 179.53028115 -49.3125 178.375 C-38.2789198 195.92123785 -25.28355091 210.74558623 -7.3125 221.375 C-8.7984916 225.96806496 -11.16264682 228.81069245 -14.3125 232.375 C-19.08257873 230.17262229 -22.49187071 226.93485618 -26.3125 223.375 C-27.03518066 222.70331787 -27.03518066 222.70331787 -27.77246094 222.01806641 C-54.77328686 196.67844058 -73.10519734 160.22336341 -74.51757812 122.95385742 C-74.61791251 119.17260866 -74.63904638 115.39352305 -74.62817383 111.61108398 C-74.62499642 109.30990856 -74.64866568 107.01000422 -74.67382812 104.70898438 C-74.82164572 70.88245089 -59.99638118 38.47614974 -36.6875 14.3125 C-27.39608206 5.42157421 -13.49761773 -6.62147285 0 0 Z " fill="#D39EA6" transform="translate(197.3125,17.625)"/>
<path d="M0 0 C14.49434552 13.21543268 21.76836464 34.80015543 27.265625 53.15234375 C29.52797537 60.63715529 32.26969553 66.33393471 37.1328125 72.5 C44.23973413 82.01554361 45.07693231 93.04374017 43.69140625 104.56640625 C41.97733829 113.28843347 38.12818251 120.51678268 31 126 C28.27734375 127.1953125 28.27734375 127.1953125 26 128 C26.40992188 127.40832031 26.81984375 126.81664062 27.2421875 126.20703125 C27.78101563 125.41683594 28.31984375 124.62664062 28.875 123.8125 C29.40867187 123.03519531 29.94234375 122.25789063 30.4921875 121.45703125 C33.41686817 116.6911656 34.27596664 113.03980155 34.25 107.4375 C34.25515625 106.32246094 34.2603125 105.20742188 34.265625 104.05859375 C34.01167605 101.13444628 33.52132851 99.46914032 32 97 C31.62875 98.794375 31.62875 98.794375 31.25 100.625 C29.24500104 108.42526993 24.67737509 112.87277821 18 117 C13.5467781 119.29650457 9.02424146 121.35017249 4.25 122.8828125 C-0.7764351 124.54333124 -3.40613631 125.85106984 -6.0625 130.5625 C-9.2843258 137.36158434 -10.3598003 144.18157719 -8.28125 151.546875 C-5.7343667 157.66761067 -2.47649105 162.13164969 3.75 164.8125 C10.95934238 167.12594569 16.21166754 166.66358231 23.125 163.5 C31.83690842 158.74502708 36.16814444 153.1520218 39.22265625 143.765625 C40.31886287 139.8655532 41.21796016 135.97536918 42 132 C42.33 132 42.66 132 43 132 C43.52380774 147.63663115 41.56081856 158.84078728 31 171 C27.51679241 173.65026665 23.79921739 175.83284079 20 178 C19.37351562 178.36738281 18.74703125 178.73476563 18.1015625 179.11328125 C13.44239854 181.33745228 8.51082764 181.33399588 3.4375 181.4375 C2.71675293 181.45997803 1.99600586 181.48245605 1.25341797 181.50561523 C-4.2594444 181.48099861 -7.44679687 180.11088413 -12 177 C-19.46914409 169.36110263 -21.12008396 161.09997765 -21.25 150.75 C-21.12280327 139.90647901 -19.11354369 133.56980705 -11.9453125 125.38671875 C-10.13829243 123.16967204 -9.15390716 121.27167023 -8 118.6875 C-5.17909432 113.83359678 -0.02136905 113.15688596 5.04370117 111.78955078 C12.03045103 109.86656253 15.80158634 107.09151921 20 101.1875 C21.317307 96.98858394 21.27247128 93.22814824 20 89 C17.00050541 85.34331278 13.49741802 84.30478508 8.85546875 83.73828125 C4.29898601 83.51317393 0.53411461 83.8939236 -3.38671875 86.5078125 C-9.47289942 92.13716121 -12.39478991 100.8152496 -15.37695312 108.37792969 C-17.20396476 112.83154438 -19.21314544 115.85539597 -23 119 C-26.39321798 119.1696609 -27.76792426 118.16825491 -30.5 116.1875 C-33.65869024 112.77296569 -35.00287076 108.47860403 -36.68359375 104.2109375 C-40.08277159 95.91976782 -43.30678706 88.53031686 -51.8125 84.75 C-57.41315612 83.43219856 -61.28688592 83.06557414 -66.4375 85.875 C-69.03874519 87.74164041 -69.03874519 87.74164041 -70 90 C-70.4269018 95.51993955 -70.519843 100.960314 -68 106 C-66.12833889 107.08186345 -66.12833889 107.08186345 -64 108 C-63.40960938 108.31839844 -62.81921875 108.63679688 -62.2109375 108.96484375 C-58.44365332 110.96070282 -55.1904983 112.1812411 -51 113 C-43.95905624 114.95461782 -41.50604816 121.0713177 -38 127 C-36.45382078 129.10280374 -34.85781815 131.14680247 -33.2265625 133.18359375 C-29.30126896 138.99652845 -29.59958706 144.92529334 -29.5625 151.6875 C-29.51319336 153.24500977 -29.51319336 153.24500977 -29.46289062 154.83398438 C-29.40787446 162.81132875 -31.03494281 169.57277831 -36.47875977 175.65112305 C-43.33766497 181.7328838 -50.73570586 181.66803919 -59.40625 181.4375 C-69.65079793 180.76462329 -78.30924413 174.48760154 -85 167 C-92.58751497 156.48397048 -93.4527589 145.5766362 -93 133 C-92.67 133 -92.34 133 -92 133 C-91.979375 134.03125 -91.95875 135.0625 -91.9375 136.125 C-90.88041641 144.36144299 -86.19357903 153.49423429 -80.125 159.125 C-73.40989595 164.21610576 -67.15213012 166.73210683 -58.6484375 166.38671875 C-53.20755621 165.59225378 -49.43372312 163.47145268 -45.625 159.5625 C-41.10272162 152.43121487 -41.3227395 145.17054018 -42 137 C-43.18230752 132.05376412 -45.36189825 129.13302725 -49.5625 126.3125 C-53.68783705 124.01552462 -58.0193072 122.16058532 -62.328125 120.23828125 C-69.62248301 116.8577089 -75.39247789 112.71763368 -80 106 C-80.69140625 103.75390625 -80.69140625 103.75390625 -81 102 C-84.13840574 103.60768218 -84.13840574 103.60768218 -84.50390625 105.99609375 C-84.71643155 114.85131448 -80.78481565 120.82277652 -76 128 C-83.40309792 125.461795 -86.74062594 121.24840708 -90.66796875 114.73046875 C-95.50908914 104.80688179 -95.63250318 92.03874625 -93.16015625 81.37890625 C-91.22769623 76.37533133 -88.74724434 72.59564276 -85.15625 68.640625 C-80.4209731 62.81350752 -78.32813754 56.53097958 -76.15270996 49.48202515 C-75.04373227 45.90211368 -73.85824255 42.34784791 -72.671875 38.79296875 C-72.44284485 38.1039296 -72.2138147 37.41489044 -71.97784424 36.70497131 C-69.39030232 29.02253027 -66.0804329 21.98514785 -62 15 C-61.3709375 13.9171875 -60.741875 12.834375 -60.09375 11.71875 C-57.43334934 7.34487095 -55.29797624 3.88711882 -51 1 C-51.43572657 2.62547642 -51.87370898 4.25034813 -52.3125 5.875 C-52.55613281 6.77992188 -52.79976563 7.68484375 -53.05078125 8.6171875 C-53.80643603 11.31017944 -54.59715743 13.98434591 -55.41015625 16.66015625 C-57.09845449 22.26436115 -58.63240515 27.90339036 -60.125 33.5625 C-60.38925781 34.53896484 -60.65351563 35.51542969 -60.92578125 36.52148438 C-62.46571266 42.36462512 -63.490336 47.97726325 -64 54 C-62.906875 53.938125 -61.81375 53.87625 -60.6875 53.8125 C-53.63066071 53.8125 -46.47560041 55.43273517 -41 60 C-42.03898437 60.01417969 -43.07796875 60.02835937 -44.1484375 60.04296875 C-55.30897674 60.35521727 -63.10867772 62.0326456 -71.4375 70 C-75.49136496 74.35627021 -78.14387155 78.00710085 -79 84 C-78.34 84 -77.68 84 -77 84 C-76.76796875 83.40445313 -76.5359375 82.80890625 -76.296875 82.1953125 C-73.4162555 77.31908311 -67.04817931 74.95872223 -62.0625 72.625 C-51.9418785 70.55956704 -44.66585535 72.36719402 -36 78 C-31.4053093 81.69393299 -28.0546167 85.99042862 -25 91 C-24.67128906 90.43152344 -24.34257812 89.86304688 -24.00390625 89.27734375 C-18.99764682 81.15065162 -12.33078709 74.78286632 -3 72 C8.69671012 70.6135786 16.97346379 74.91869087 26 82 C26.66 82.66 27.32 83.32 28 84 C27.69815739 77.96314776 24.96870488 74.30372542 21 70 C11.68809745 61.6117477 3.07337485 60.45061502 -9 60 C-5.60309287 56.21032549 -1.87645296 55.09877159 3 54 C4.93579598 53.91428029 6.87504928 53.88733135 8.8125 53.91796875 C9.78832031 53.92981201 10.76414062 53.94165527 11.76953125 53.95385742 C12.50558594 53.96908447 13.24164063 53.98431152 14 54 C10.66537825 35.50162463 5.99377283 17.80416265 0 0 Z " fill="#C1BBC0" transform="translate(347,308)"/>
<path d="M0 0 C-0.721875 0.48210937 -1.44375 0.96421875 -2.1875 1.4609375 C-3.5796875 2.40839844 -3.5796875 2.40839844 -5 3.375 C-6.3921875 4.31472656 -6.3921875 4.31472656 -7.8125 5.2734375 C-8.534375 5.84320313 -9.25625 6.41296875 -10 7 C-10 7.66 -10 8.32 -10 9 C-9.45472656 8.81824219 -8.90945313 8.63648438 -8.34765625 8.44921875 C-6.75937481 7.9197916 -5.17081239 7.39120695 -3.58203125 6.86328125 C-1.9106444 6.30446658 -0.24121728 5.73974119 1.42578125 5.16796875 C2.57626953 4.77544922 2.57626953 4.77544922 3.75 4.375 C4.44609375 4.13523437 5.1421875 3.89546875 5.859375 3.6484375 C10.57439355 2.22016546 14.90686715 1.88064699 19.83203125 1.90234375 C21.12431641 1.90556641 22.41660156 1.90878906 23.74804688 1.91210938 C25.10286526 1.92046335 26.45768297 1.92892828 27.8125 1.9375 C29.18684735 1.94252 30.56119645 1.94708203 31.93554688 1.95117188 C35.29040924 1.96294332 38.64518221 1.97938717 42 2 C42.33 1.01 42.66 0.02 43 -1 C44.83863505 0.11631414 46.67079723 1.24329627 48.5 2.375 C50.03140625 3.31472656 50.03140625 3.31472656 51.59375 4.2734375 C52.3878125 4.84320313 53.181875 5.41296875 54 6 C54 6.66 54 7.32 54 8 C51.54724859 9.2263757 49.9494219 9.11415314 47.2109375 9.09765625 C46.26992188 9.09443359 45.32890625 9.09121094 44.359375 9.08789062 C43.37453125 9.07951172 42.3896875 9.07113281 41.375 9.0625 C39.88613281 9.05573242 39.88613281 9.05573242 38.3671875 9.04882812 C35.9113984 9.03702145 33.45572896 9.020554 31 9 C31.3609375 9.48210937 31.721875 9.96421875 32.09375 10.4609375 C32.78984375 11.40839844 32.78984375 11.40839844 33.5 12.375 C34.19609375 13.31472656 34.19609375 13.31472656 34.90625 14.2734375 C36 16 36 16 36 18 C35.4016333 18.0093457 34.8032666 18.01869141 34.18676758 18.02832031 C14.90798239 18.40600899 -0.95876975 20.64435336 -15.62890625 34.26171875 C-23.18028689 42.98250595 -26.19479591 52.92487482 -26.0625 64.3125 C-26.05798828 65.05306641 -26.05347656 65.79363281 -26.04882812 66.55664062 C-26.03712175 68.37112899 -26.01918898 70.18557534 -26 72 C-25.34 72 -24.68 72 -24 72 C-23.938125 71.030625 -23.87625 70.06125 -23.8125 69.0625 C-22.85463469 62.31639144 -18.58369388 55.8998107 -14 51 C-13.34 51 -12.68 51 -12 51 C-11.90203125 51.90621094 -11.8040625 52.81242187 -11.703125 53.74609375 C-10.28852871 65.27017556 -7.8406007 74.03785222 1 82 C6.82299752 85.45066519 12.5829176 85.94825439 19.12890625 84.54296875 C20.76869132 84.08250385 22.38765678 83.5488828 24 83 C22.403147 90.09712444 17.93701282 95.04199145 12 99 C5.29910422 101.30438045 -3.38762602 101.3671008 -9.97265625 98.875 C-12.09587491 97.69057374 -14.06466871 96.46854407 -16 95 C-12.08089316 101.69514085 -6.60014834 107.6935966 1 110 C9.58495802 110.82677087 16.68246908 110.7787957 24 106 C32.78078014 136.7327305 29.57192681 172.02951324 14.04345703 200.0246582 C10.86016902 205.48573528 7.25102408 210.33351807 3 215 C1.69095703 216.44826172 1.69095703 216.44826172 0.35546875 217.92578125 C-13.86559054 233.14250897 -32.04826605 242.44251009 -52 248 C-52.66 248 -53.32 248 -54 248 C-54 246 -54 246 -51.77734375 243.76171875 C-50.86082031 242.85035156 -49.94429688 241.93898438 -49 241 C-39.693397 228.9095088 -35.55352587 215.64383219 -32 201 C-31.505 201.99 -31.505 201.99 -31 203 C-16.61975075 194.12109166 -4.85897604 183.55793292 -0.6875 166.4375 C2.36267301 147.5738087 -2.45306631 132.61942143 -10.70703125 115.80859375 C-12.86690375 111.36840976 -14.70607627 106.84725952 -16.5 102.25 C-18.98678678 95.97140713 -22.00878548 90.33186292 -25.57836914 84.6081543 C-28.42336263 80.03094898 -31.00454271 75.37162497 -33.4375 70.5625 C-33.76741943 69.9243335 -34.09733887 69.28616699 -34.43725586 68.62866211 C-38.63318495 60.20499165 -39.36338771 52.42644596 -39.375 43.125 C-39.39949219 42.10019531 -39.42398437 41.07539063 -39.44921875 40.01953125 C-39.49234915 28.70499019 -35.56646501 19.83736891 -27.9375 11.5 C-21.70275546 5.47840912 -8.93458062 -2.97819354 0 0 Z " fill="#90B7BC" transform="translate(425,280)"/>
<path d="M0 0 C11.55846531 0.84061566 21.96218965 6.33841518 29.8125 14.875 C32.8990996 18.618931 35.19499562 22.50032083 37 27 C37.35578125 27.86625 37.7115625 28.7325 38.078125 29.625 C42.31300918 45.12898275 38.65274782 61.81702236 31.08007812 75.59790039 C29.02158939 79.1928475 26.82641012 82.70292112 24.60083008 86.19604492 C20.53498547 92.72564066 17.47713144 99.45391216 14.5625 106.5625 C14.08949463 107.70130615 13.61648926 108.8401123 13.12915039 110.01342773 C12.18489961 112.28892259 11.2436586 114.56566909 10.30566406 116.84375 C9.15616119 119.62250339 7.98723768 122.39144547 6.8046875 125.15625 C6.18217615 126.62495104 5.55977073 128.09369699 4.9375 129.5625 C4.66301025 130.19679932 4.38852051 130.83109863 4.10571289 131.48461914 C-1.52527495 144.95267837 -2.32434985 161.31454868 2.68359375 175.08203125 C8.36515809 187.67588455 17.31651279 198.17907592 30 204 C30.66 203.01 31.32 202.02 32 201 C32.15855469 201.85980469 32.31710938 202.71960938 32.48046875 203.60546875 C35.36650703 218.22699971 40.64325072 229.78628952 49 242 C50.3378684 243.99701059 51.66873577 245.99857554 53 248 C30.9942488 245.71550464 9.32963833 231.58541456 -4.5378418 214.77514648 C-6.7910781 211.9174313 -8.92302092 208.9876883 -11 206 C-11.65613281 205.05898438 -12.31226563 204.11796875 -12.98828125 203.1484375 C-16.81998433 197.11626635 -19.40130171 190.75790336 -21.8125 184.0625 C-22.10286133 183.26440918 -22.39322266 182.46631836 -22.69238281 181.64404297 C-26.73311071 169.81525333 -27.32851103 157.94789855 -27.26074219 145.57226562 C-27.25007704 143.26665564 -27.26067233 140.96183568 -27.2734375 138.65625 C-27.28169467 128.31002086 -26.42719411 118.24393767 -25 108 C-23.80375 108.495 -22.6075 108.99 -21.375 109.5 C-13.69544743 112.01947466 -4.60343225 112.78750945 2.8125 109.125 C8.08354318 105.70674831 12.04418863 100.81617696 16 96 C15.46890625 96.27714844 14.9378125 96.55429687 14.390625 96.83984375 C13.33101562 97.38318359 13.33101562 97.38318359 12.25 97.9375 C11.20585937 98.47697266 11.20585937 98.47697266 10.140625 99.02734375 C3.63697131 101.98247107 -4.56598502 102.18908964 -11.41796875 100.3515625 C-17.63281329 97.53865414 -21.86059629 92.84850928 -24.375 86.5625 C-24.58125 85.716875 -24.7875 84.87125 -25 84 C-24.47921875 84.15855469 -23.9584375 84.31710937 -23.421875 84.48046875 C-16.11287853 86.04836638 -7.20571735 86.40588101 -0.671875 82.37109375 C7.56017541 75.62004307 10.41906946 65.45207386 11.75 55.1875 C11.8325 54.135625 11.915 53.08375 12 52 C16.84524948 53.61508316 18.63896848 57.6354822 21 62 C22.54293399 65.94462636 23.82941494 69.93049545 25 74 C27.01198156 62.68260372 26.74908964 52.59116143 20.4921875 42.58984375 C13.92813056 33.69020376 6.15467061 27.33759109 -4 23 C-5.16789062 22.47019531 -5.16789062 22.47019531 -6.359375 21.9296875 C-12.93309805 19.61527021 -20.03897368 19.72513507 -26.9375 19.4375 C-28.3925293 19.37272461 -28.3925293 19.37272461 -29.87695312 19.30664062 C-32.25118601 19.20137907 -34.62550921 19.09924293 -37 19 C-35.28564986 15.44774296 -33.22257977 12.25978366 -31 9 C-31.81726563 9.16371094 -32.63453125 9.32742188 -33.4765625 9.49609375 C-37.48768176 10.06974606 -41.33248121 10.11001604 -45.375 10.0625 C-46.11105469 10.05798828 -46.84710938 10.05347656 -47.60546875 10.04882812 C-49.40368158 10.03715142 -51.20185197 10.01922011 -53 10 C-53 8.68 -53 7.36 -53 6 C-50.03 4.35 -47.06 2.7 -44 1 C-44 1.66 -44 2.32 -44 3 C-43.26587891 2.97905273 -42.53175781 2.95810547 -41.77539062 2.93652344 C-27.61010486 2.58616102 -14.48960612 2.28188055 -1 7 C0.4540625 7.48533203 0.4540625 7.48533203 1.9375 7.98046875 C7.28142724 9.92877556 11.52669734 12.49915444 16 16 C16.66 15.67 17.32 15.34 18 15 C12.82904798 10.18355769 7.64496917 5.88838237 1.65234375 2.12890625 C1.10707031 1.75636719 0.56179687 1.38382812 0 1 C0 0.67 0 0.34 0 0 Z " fill="#D79FA9" transform="translate(219,279)"/>
<path d="M0 0 C0.33 0 0.66 0 1 0 C1.15855469 1.258125 1.31710938 2.51625 1.48046875 3.8125 C4.50797442 26.55789313 11.15940442 46.11976436 26 64 C26.69738281 64.86109375 27.39476562 65.7221875 28.11328125 66.609375 C35.6740352 75.51088422 44.79684368 82.3715586 55 88 C52.61223319 90.68722271 50.13555845 92.08156849 46.9375 93.6875 C31.58134538 101.91112491 19.75553475 114.48893049 12 130 C1.77 130 -8.46 130 -19 130 C-18.3903351 122.68402115 -17.82498067 115.99888348 -16.25 108.9375 C-16.0744458 108.13441406 -15.8988916 107.33132813 -15.71801758 106.50390625 C-15.16075229 103.9987732 -14.58509056 101.49877318 -14 99 C-13.81421387 98.20609863 -13.62842773 97.41219727 -13.43701172 96.59423828 C-10.67672184 85.0267422 -7.01271227 73.96704745 -2.67675781 62.89672852 C-1.98264733 60.95136619 -1.46808937 59.01060582 -1 57 C-6.33074552 61.05975759 -11.49400809 65.22375731 -16.46875 69.71484375 C-18 71 -18 71 -19 71 C-20.98410689 46.67631919 -12.40187309 20.73525841 0 0 Z " fill="#FDFDFD" transform="translate(172,513)"/>
<path d="M0 0 C4.28440052 3.78621441 6.44278879 6.47848811 7.1875 12.25 C6.96300656 17.36154301 5.62826697 22.26062345 4.28710938 27.17529297 C1.31722485 38.07126229 0.37120168 48.32113669 0.4375 59.625 C0.42976563 60.92824219 0.42203125 62.23148438 0.4140625 63.57421875 C0.44048127 76.90248686 2.00383903 89.55089161 5.875 102.3125 C6.33628296 103.85635376 6.33628296 103.85635376 6.80688477 105.43139648 C9.46298979 114.08419802 12.68401214 122.2659831 16.6875 130.375 C16.98205078 130.99101074 17.27660156 131.60702148 17.58007812 132.24169922 C22.4036617 142.26652276 28.55336466 150.84844164 35.35449219 159.62011719 C37.9830051 163.08051111 40.36344595 166.70544097 42.6875 170.375 C40.47954578 170.85591058 38.271119 171.33465179 36.0625 171.8125 C34.83273438 172.07933594 33.60296875 172.34617188 32.3359375 172.62109375 C29.12732928 173.28411451 25.92302432 173.86229384 22.6875 174.375 C22.625625 173.3025 22.56375 172.23 22.5 171.125 C21.35556011 162.05285723 16.35346678 153.54047263 12.3359375 145.44726562 C-6.57402091 107.31218282 -11.91935826 69.90920805 -5.96875 27.67578125 C-5.35276547 23.18823768 -5.18366112 18.90046576 -5.3125 14.375 C-12.37826753 13.45337815 -16.68317229 16.29859028 -22.3125 20.375 C-46.17488703 39.19028806 -60.2120767 68.63057018 -64.9296875 98.25 C-67.6443431 123.21805262 -63.1397907 146.46151567 -54.30541992 169.73071289 C-53.64255106 171.49602704 -52.99946191 173.26889312 -52.3762207 175.04858398 C-49.45944916 183.37483165 -45.7383066 191.25078293 -41.93945312 199.20507812 C-41.45798828 200.23181641 -40.97652344 201.25855469 -40.48046875 202.31640625 C-40.03985107 203.24138916 -39.5992334 204.16637207 -39.14526367 205.11938477 C-38.87045166 205.86373779 -38.59563965 206.60809082 -38.3125 207.375 C-38.6425 208.035 -38.9725 208.695 -39.3125 209.375 C-54.32578212 194.72039698 -63.62149958 172.84278395 -69.75 153.125 C-69.98501221 152.38266113 -70.22002441 151.64032227 -70.4621582 150.87548828 C-74.17302402 138.11362964 -74.66611816 124.81149608 -74.62817383 111.61108398 C-74.62499642 109.30990856 -74.64866568 107.01000422 -74.67382812 104.70898438 C-74.82164572 70.88245089 -59.99638118 38.47614974 -36.6875 14.3125 C-27.39608206 5.42157421 -13.49761773 -6.62147285 0 0 Z " fill="#E6E3E3" transform="translate(197.3125,17.625)"/>
<path d="M0 0 C12.23177207 0 20.81455485 9.945906 29.0234375 17.98046875 C52.24108333 42.47745424 60.64420319 73.93185965 60.2734375 106.8203125 C59.82322427 123.51386233 55.96606206 138.9732275 49.96630859 154.47900391 C48.96034521 157.10345513 48.00225128 159.74205915 47.05078125 162.38671875 C43.56140655 171.97347049 39.72677132 181.00631078 34.6640625 189.87109375 C33.06676611 192.8744609 32.0680767 195.78224994 31 199 C26.23301306 206.3581018 17.74412058 215.12793971 10 219 C7.03 216.03 4.06 213.06 1 210 C2.31043057 206.06870829 3.69011274 205.87931894 7.3125 204 C22.88935845 195.15957915 34.50089996 180.56375282 43 165 C42.12601562 165.85271484 42.12601562 165.85271484 41.234375 166.72265625 C34.11725521 173.42572976 25.98817269 180.54452857 16 182 C19.10689484 178.27172619 22.21596096 174.76323186 25.75 171.4375 C36.367247 160.90145566 44.53581779 147.25104321 49 133 C48.34515625 133.7734375 47.6903125 134.546875 47.015625 135.34375 C40.66523789 142.65439368 34.38509901 148.02454858 26 153 C25.34 152.67 24.68 152.34 24 152 C24.81791016 151.195625 24.81791016 151.195625 25.65234375 150.375 C42.47007849 132.89605517 50.4072698 109.83148011 50.0703125 85.859375 C50.04710937 84.91578125 50.02390625 83.9721875 50 83 C49.67128906 84.10794922 49.67128906 84.10794922 49.3359375 85.23828125 C45.53741289 97.39047178 39.77168452 110.47393222 29 118 C29.23783203 117.23042969 29.23783203 117.23042969 29.48046875 116.4453125 C31.26533944 110.58778106 32.96056387 104.70519425 34.625 98.8125 C34.84309326 98.05275879 35.06118652 97.29301758 35.28588867 96.51025391 C40.20847108 78.95119394 40.84911444 57.73543329 33 41 C32.96036133 41.61294922 32.92072266 42.22589844 32.87988281 42.85742188 C31.14903387 68.42808521 31.14903387 68.42808521 27 80 C26.01 80.495 26.01 80.495 25 81 C24.98541748 80.41210693 24.97083496 79.82421387 24.95581055 79.21850586 C24.22863435 52.86800434 20.10919869 26.68903167 0.31640625 7.35546875 C-1.35744505 5.63194827 -1.76988809 4.37782304 -2 2 C-1.34 1.34 -0.68 0.68 0 0 Z " fill="#95B5BA" transform="translate(452,31)"/>
<path d="M0 0 C-0.721875 0.48210937 -1.44375 0.96421875 -2.1875 1.4609375 C-3.5796875 2.40839844 -3.5796875 2.40839844 -5 3.375 C-6.3921875 4.31472656 -6.3921875 4.31472656 -7.8125 5.2734375 C-8.534375 5.84320313 -9.25625 6.41296875 -10 7 C-10 7.66 -10 8.32 -10 9 C-9.45472656 8.81824219 -8.90945313 8.63648438 -8.34765625 8.44921875 C-6.75937481 7.9197916 -5.17081239 7.39120695 -3.58203125 6.86328125 C-1.9106444 6.30446658 -0.24121728 5.73974119 1.42578125 5.16796875 C2.57626953 4.77544922 2.57626953 4.77544922 3.75 4.375 C4.44609375 4.13523437 5.1421875 3.89546875 5.859375 3.6484375 C10.57439355 2.22016546 14.90686715 1.88064699 19.83203125 1.90234375 C21.12431641 1.90556641 22.41660156 1.90878906 23.74804688 1.91210938 C25.10286526 1.92046335 26.45768297 1.92892828 27.8125 1.9375 C29.18684735 1.94252 30.56119645 1.94708203 31.93554688 1.95117188 C35.29040924 1.96294332 38.64518221 1.97938717 42 2 C42.33 1.01 42.66 0.02 43 -1 C44.83863505 0.11631414 46.67079723 1.24329627 48.5 2.375 C50.03140625 3.31472656 50.03140625 3.31472656 51.59375 4.2734375 C52.3878125 4.84320313 53.181875 5.41296875 54 6 C54 6.66 54 7.32 54 8 C51.54724859 9.2263757 49.9494219 9.11415314 47.2109375 9.09765625 C46.26992188 9.09443359 45.32890625 9.09121094 44.359375 9.08789062 C43.37453125 9.07951172 42.3896875 9.07113281 41.375 9.0625 C39.88613281 9.05573242 39.88613281 9.05573242 38.3671875 9.04882812 C35.9113984 9.03702145 33.45572896 9.020554 31 9 C31.3609375 9.48210937 31.721875 9.96421875 32.09375 10.4609375 C32.78984375 11.40839844 32.78984375 11.40839844 33.5 12.375 C34.19609375 13.31472656 34.19609375 13.31472656 34.90625 14.2734375 C36 16 36 16 36 18 C35.4016333 18.0093457 34.8032666 18.01869141 34.18676758 18.02832031 C14.90798239 18.40600899 -0.95876975 20.64435336 -15.62890625 34.26171875 C-23.18028689 42.98250595 -26.19479591 52.92487482 -26.0625 64.3125 C-26.05798828 65.05306641 -26.05347656 65.79363281 -26.04882812 66.55664062 C-26.03712175 68.37112899 -26.01918898 70.18557534 -26 72 C-25.34 72 -24.68 72 -24 72 C-23.9071875 70.5459375 -23.9071875 70.5459375 -23.8125 69.0625 C-22.85463469 62.31639144 -18.58369388 55.8998107 -14 51 C-13.34 51 -12.68 51 -12 51 C-11.90203125 51.90621094 -11.8040625 52.81242187 -11.703125 53.74609375 C-10.28852871 65.27017556 -7.8406007 74.03785222 1 82 C6.82299752 85.45066519 12.5829176 85.94825439 19.12890625 84.54296875 C20.76869132 84.08250385 22.38765678 83.5488828 24 83 C22.403147 90.09712444 17.93701282 95.04199145 12 99 C5.20555103 101.31594085 -3.47676613 101.51381916 -10.0546875 98.6875 C-12.6875 97.0625 -12.6875 97.0625 -14.94921875 95.41015625 C-16.86843303 93.88455209 -16.86843303 93.88455209 -18.98022461 93.63769531 C-21.64008568 92.7979084 -22.06771945 91.81543792 -23.3671875 89.38671875 C-23.77517578 88.63890137 -24.18316406 87.89108398 -24.60351562 87.12060547 C-25.02310547 86.31768066 -25.44269531 85.51475586 -25.875 84.6875 C-26.31263672 83.87168457 -26.75027344 83.05586914 -27.20117188 82.21533203 C-28.48128752 79.81724242 -29.74184356 77.40966326 -31 75 C-31.63755349 73.80573997 -32.2755159 72.61169807 -32.9140625 71.41796875 C-37.90936684 61.83338235 -39.36160877 53.85137651 -39.375 43.125 C-39.39949219 42.10019531 -39.42398437 41.07539063 -39.44921875 40.01953125 C-39.49234915 28.70499019 -35.56646501 19.83736891 -27.9375 11.5 C-21.70275546 5.47840912 -8.93458062 -2.97819354 0 0 Z " fill="#C1BBC0" transform="translate(425,280)"/>
<path d="M0 0 C11.55846531 0.84061566 21.96218965 6.33841518 29.8125 14.875 C32.8990996 18.618931 35.19499562 22.50032083 37 27 C37.35578125 27.86625 37.7115625 28.7325 38.078125 29.625 C42.31221833 45.12608743 38.65106785 61.79930703 31.09082031 75.58154297 C29.45892536 78.42767315 27.72554441 81.20997436 26 84 C25.43667969 85.00933594 24.87335938 86.01867187 24.29296875 87.05859375 C23.78378906 87.96738281 23.27460938 88.87617188 22.75 89.8125 C22.09257812 90.99779297 22.09257812 90.99779297 21.421875 92.20703125 C19.67537488 94.40934871 18.70355567 94.48673097 16 95 C14.63877899 95.7869559 13.30511204 96.62312785 12 97.5 C5.50735862 101.86224343 -1.35141141 101.64119904 -9 101 C-15.21689829 99.33278657 -19.52369836 95.31736928 -23 90 C-24.375 86.5625 -24.375 86.5625 -25 84 C-24.47921875 84.15855469 -23.9584375 84.31710937 -23.421875 84.48046875 C-16.11287853 86.04836638 -7.20571735 86.40588101 -0.671875 82.37109375 C7.56017541 75.62004307 10.41906946 65.45207386 11.75 55.1875 C11.8325 54.135625 11.915 53.08375 12 52 C16.84524948 53.61508316 18.63896848 57.6354822 21 62 C22.54293399 65.94462636 23.82941494 69.93049545 25 74 C27.01198156 62.68260372 26.74908964 52.59116143 20.4921875 42.58984375 C13.92813056 33.69020376 6.15467061 27.33759109 -4 23 C-5.16789062 22.47019531 -5.16789062 22.47019531 -6.359375 21.9296875 C-12.93309805 19.61527021 -20.03897368 19.72513507 -26.9375 19.4375 C-28.3925293 19.37272461 -28.3925293 19.37272461 -29.87695312 19.30664062 C-32.25118601 19.20137907 -34.62550921 19.09924293 -37 19 C-35.28564986 15.44774296 -33.22257977 12.25978366 -31 9 C-31.81726563 9.16371094 -32.63453125 9.32742188 -33.4765625 9.49609375 C-37.48768176 10.06974606 -41.33248121 10.11001604 -45.375 10.0625 C-46.11105469 10.05798828 -46.84710938 10.05347656 -47.60546875 10.04882812 C-49.40368158 10.03715142 -51.20185197 10.01922011 -53 10 C-53 8.68 -53 7.36 -53 6 C-50.03 4.35 -47.06 2.7 -44 1 C-44 1.66 -44 2.32 -44 3 C-43.26587891 2.97905273 -42.53175781 2.95810547 -41.77539062 2.93652344 C-27.61010486 2.58616102 -14.48960612 2.28188055 -1 7 C0.4540625 7.48533203 0.4540625 7.48533203 1.9375 7.98046875 C7.28142724 9.92877556 11.52669734 12.49915444 16 16 C16.66 15.67 17.32 15.34 18 15 C12.82904798 10.18355769 7.64496917 5.88838237 1.65234375 2.12890625 C1.10707031 1.75636719 0.56179687 1.38382812 0 1 C0 0.67 0 0.34 0 0 Z " fill="#C1BBBF" transform="translate(219,279)"/>
<path d="M0 0 C2.63778708 3.95668062 3.36446724 7.84373301 4.4375 12.4375 C4.65631836 13.36530273 4.87513672 14.29310547 5.10058594 15.24902344 C7.27716085 24.7558654 8.76809925 34.33021849 10 44 C10.09571289 44.66016113 10.19142578 45.32032227 10.29003906 46.00048828 C11.3181491 53.7518484 11.24383968 61.56966631 11.25 69.375 C11.25067474 70.14500336 11.25134949 70.91500671 11.25204468 71.70834351 C11.2045173 106.09729057 4.57668796 138.10602127 -8.8125 169.75 C-9.19760742 170.66209229 -9.58271484 171.57418457 -9.97949219 172.51391602 C-10.34333008 173.34979248 -10.70716797 174.18566895 -11.08203125 175.046875 C-11.40405518 175.78776367 -11.7260791 176.52865234 -12.05786133 177.29199219 C-13 179 -13 179 -15 180 C-17.8203125 178.78515625 -17.8203125 178.78515625 -21.125 177.0625 C-22.22070312 176.49660156 -23.31640625 175.93070313 -24.4453125 175.34765625 C-25.28835938 174.90292969 -26.13140625 174.45820313 -27 174 C-27 173.34 -27 172.68 -27 172 C-24.03 170.35 -21.06 168.7 -18 167 C-19.23930337 160.80348313 -21.20682684 159.91107365 -26.06640625 156.35546875 C-28.32650177 153.60226148 -28.60818001 151.74217656 -28.39770508 148.21069336 C-27.65197741 144.06547298 -25.88897681 140.4557747 -24.0625 136.6875 C-23.65789551 135.81794678 -23.25329102 134.94839355 -22.83642578 134.05249023 C-20.82407716 129.74637558 -18.74601399 125.47412246 -16.64453125 121.2109375 C-8.95526832 105.52674741 -2.86789796 89.29757321 0 72 C0.13390137 71.22672363 0.26780273 70.45344727 0.40576172 69.65673828 C3.80138276 49.63823446 4.23771997 30.13178421 0.65625 10.1171875 C0.05733594 6.70930411 -0.13298615 3.4687221 0 0 Z " fill="#92B6BB" transform="translate(451,39)"/>
<path d="M0 0 C0.90621094 0.54269531 1.81242187 1.08539063 2.74609375 1.64453125 C13.9668254 8.336623 13.9668254 8.336623 26.5625 11.3125 C30.08536884 12.01707377 31.16487722 12.6994182 33.875 14.875 C42.44969413 21.6694243 51.32907897 21.66185256 62 21 C68.27769765 20.25983477 76.02955414 18.38990364 80.35546875 13.453125 C82.69915696 11.3822176 84.87909214 11.23245267 87.9375 10.6875 C96.86217304 8.80284837 104.26868496 4.70601785 112 0 C107.49903699 16.15051433 96.74002142 28.03359979 82.32421875 36.3046875 C69.12357223 43.03686211 52.70570427 44.82181567 38.375 40.375 C36.56115877 39.63555052 34.76747975 38.8442872 33 38 C32.071875 37.57589844 31.14375 37.15179687 30.1875 36.71484375 C16.50009768 29.89015287 5.86023731 18.20918437 0.9375 3.625 C0.628125 2.42875 0.31875 1.2325 0 0 Z " fill="#C4BEC2" transform="translate(266,492)"/>
<path d="M0 0 C1 2 1 2 0.25 4.2734375 C-0.36875 5.80871094 -0.36875 5.80871094 -1 7.375 C-3.8506599 14.85849941 -5.80562002 22.5521245 -7.75 30.3125 C-8.05550781 31.51632324 -8.36101562 32.72014648 -8.67578125 33.96044922 C-10.24563554 40.31818309 -11.468165 46.47102555 -12 53 C-10.906875 52.938125 -9.81375 52.87625 -8.6875 52.8125 C-1.63066071 52.8125 5.52439959 54.43273517 11 59 C9.96101563 59.01417969 8.92203125 59.02835937 7.8515625 59.04296875 C-3.15290292 59.35085065 -10.94783165 61.02118059 -19.3125 68.6875 C-25.67099606 75.56085404 -28.27018541 82.13013518 -28.6875 91.40234375 C-29.01691743 94.1406261 -29.71783654 95.80165615 -31.0625 98.1875 C-33.24134061 102.19818067 -34.11098685 105.50522312 -33 110 C-30.46169669 115.92710306 -27.58086041 121.62870938 -24 127 C-31.40309792 124.461795 -34.74062594 120.24840708 -38.66796875 113.73046875 C-43.50908914 103.80688179 -43.63250318 91.03874625 -41.16015625 80.37890625 C-39.22769623 75.37533133 -36.74724434 71.59564276 -33.15625 67.640625 C-28.4209731 61.81350752 -26.32813754 55.53097958 -24.15270996 48.48202515 C-23.04373227 44.90211368 -21.85824255 41.34784791 -20.671875 37.79296875 C-20.44284485 37.1039296 -20.2138147 36.41489044 -19.97784424 35.70497131 C-15.86445634 23.49227642 -9.56930011 8.87962082 0 0 Z " fill="#0A0A0B" transform="translate(295,309)"/>
<path d="M0 0 C14.49434552 13.21543268 21.76836464 34.80015543 27.265625 53.15234375 C29.52797537 60.63715529 32.26969553 66.33393471 37.1328125 72.5 C44.23973413 82.01554361 45.07693231 93.04374017 43.69140625 104.56640625 C41.97733829 113.28843347 38.12818251 120.51678268 31 126 C28.27734375 127.1953125 28.27734375 127.1953125 26 128 C26.40992188 127.40832031 26.81984375 126.81664062 27.2421875 126.20703125 C28.05042969 125.02173828 28.05042969 125.02173828 28.875 123.8125 C29.40867187 123.03519531 29.94234375 122.25789063 30.4921875 121.45703125 C34.56849786 114.81454623 34.65245444 108.65416706 34 101 C32.66666667 97.91666667 32.66666667 97.91666667 31 95 C30.66451235 93.09051614 30.37835741 91.17210577 30.125 89.25 C28.63134039 79.5949843 24.98862858 72.87601827 17.3671875 66.69140625 C9.04076009 60.74199525 1.01026519 60.2637751 -9 60 C-5.60309287 56.21032549 -1.87645296 55.09877159 3 54 C4.93579598 53.91428029 6.87504928 53.88733135 8.8125 53.91796875 C9.78832031 53.92981201 10.76414062 53.94165527 11.76953125 53.95385742 C12.50558594 53.96908447 13.24164063 53.98431152 14 54 C10.66537825 35.50162463 5.99377283 17.80416265 0 0 Z " fill="#0B0B0B" transform="translate(347,308)"/>
<path d="M0 0 C5.63166385 4.81669208 9.80555792 10.76575987 12.10546875 17.80078125 C12.29296875 20.73828125 12.29296875 20.73828125 12.10546875 22.80078125 C11.15671875 21.95515625 10.20796875 21.10953125 9.23046875 20.23828125 C-3.35825706 9.48434948 -14.12615604 4.6536807 -30.88476562 5.58300781 C-40.34333454 6.60791591 -48.87537382 12.74480151 -55.89453125 18.80078125 C-56.72791016 19.91259766 -56.72791016 19.91259766 -57.578125 21.046875 C-58.22974609 21.91505859 -58.22974609 21.91505859 -58.89453125 22.80078125 C-59.55453125 22.80078125 -60.21453125 22.80078125 -60.89453125 22.80078125 C-60.24236997 14.54007166 -56.01204292 6.97696529 -49.98828125 1.40234375 C-35.24520901 -9.87500628 -15.31036124 -10.92048775 0 0 Z " fill="#0B0B0B" transform="translate(345.89453125,267.19921875)"/>
<path d="M0 0 C0.495 1.485 0.495 1.485 1 3 C-6.80207307 16.75921147 -19.19987227 27.04833168 -34 32.5 C-46.79614107 35.98278931 -61.96824179 35.74731308 -74 30 C-74.928125 29.57589844 -75.85625 29.15179687 -76.8125 28.71484375 C-86.32273178 23.97293652 -96.88770347 16.19700677 -101 6 C-100.64453125 3.234375 -100.64453125 3.234375 -100 1 C-98.700625 2.1446875 -98.700625 2.1446875 -97.375 3.3125 C-95.921145 4.54696038 -94.4619118 5.77509156 -93 7 C-92.51160645 7.41282227 -92.02321289 7.82564453 -91.52001953 8.25097656 C-77.40254764 20.09475189 -63.13898743 28.63702004 -44 27 C-31.03872138 24.30882543 -17.38155427 17.57245654 -9.3046875 6.72265625 C-8.87414062 6.15417969 -8.44359375 5.58570313 -8 5 C-7.34 5 -6.68 5 -6 5 C-6 4.34 -6 3.68 -6 3 C-5.01 3 -4.02 3 -3 3 C-2.67 2.34 -2.34 1.68 -2 1 C-1.34 0.67 -0.68 0.34 0 0 Z " fill="#E3E1E2" transform="translate(373,500)"/>
<path d="M0 0 C2.11617264 2.65522246 3.63189987 5.12814015 4.90234375 8.2734375 C5.23347168 9.09150879 5.56459961 9.90958008 5.90576172 10.75244141 C6.24623535 11.61788574 6.58670898 12.48333008 6.9375 13.375 C7.29086426 14.26751465 7.64422852 15.1600293 8.00830078 16.07958984 C12.52499339 27.67875661 17.26557641 40.40725198 17 53 C16.09636719 52.4946875 15.19273437 51.989375 14.26171875 51.46875 C13.07049449 50.8121697 11.87907815 50.15593782 10.6875 49.5 C10.09259766 49.16613281 9.49769531 48.83226562 8.88476562 48.48828125 C6.04171156 46.93174886 4.29339012 46 1 46 C1 45.34 1 44.68 1 44 C-0.485 44.495 -0.485 44.495 -2 45 C-2.90720385 40.82686228 -3.08590742 37.81071158 -2.0625 33.65625 C-0.63545586 26.93616942 -0.54426594 20.22321787 -0.375 13.375 C-0.33632813 12.08464844 -0.29765625 10.79429687 -0.2578125 9.46484375 C-0.16433658 6.3100313 -0.07857687 3.15521273 0 0 Z " fill="#CF97A0" transform="translate(468,413)"/>
<path d="M0 0 C11.55846531 0.84061566 21.96218965 6.33841518 29.8125 14.875 C35.99402704 22.37296335 39.30923079 30.61076816 39.125 40.375 C39.10695313 41.62023437 39.08890625 42.86546875 39.0703125 44.1484375 C39.04710937 45.08945312 39.02390625 46.03046875 39 47 C36.81113471 44.81113471 36.33145586 43.4441625 35.3125 40.5625 C29.62219415 26.0875249 19.22089613 14.32213349 6.41015625 5.71875 C4.00246383 4.00175702 2.02785365 2.14547857 0 0 Z " fill="#101010" transform="translate(219,279)"/>
<path d="M0 0 C-1.19882812 0.76570313 -1.19882812 0.76570313 -2.421875 1.546875 C-19.49250865 12.84715361 -30.05897994 25.94918745 -38 45 C-38.33 45 -38.66 45 -39 45 C-39.66008524 32.27502339 -37.85169079 23.22579361 -29.578125 13.29296875 C-23.30566701 6.43806823 -9.68120297 -3.22706766 0 0 Z " fill="#121111" transform="translate(425,280)"/>
<path d="M0 0 C4.81826218 0.84530916 6.34029694 1.93125503 9.5625 5.625 C10.1875 9.1875 10.1875 9.1875 9.5625 12.625 C7.69541495 14.98997439 6.24188569 16.28530715 3.5625 17.625 C-0.30964182 18.05523798 -1.96246371 17.94169086 -5.25 15.75 C-7.81857884 13.25480912 -8.34172618 12.34330363 -8.8125 8.8125 C-8.4375 5.625 -8.4375 5.625 -6.375 2.75 C-3.4375 0.625 -3.4375 0.625 0 0 Z " fill="#E2E1E2" transform="translate(198.4375,312.375)"/>
<path d="M0 0 C2.5625 1.5625 2.5625 1.5625 4 4 C4.5 7.5 4.5 7.5 4 11 C1.38882396 14.30748965 -0.62603815 15.81680509 -4.8125 16.375 C-8 16 -8 16 -10.875 13.9375 C-13 11 -13 11 -13.5625 7.4375 C-13 4 -13 4 -11.5625 1.5625 C-7.76035723 -0.75587974 -4.33759522 -0.77201236 0 0 Z " fill="#E6E5E5" transform="translate(449,314)"/>
<path d="M0 0 C2.78810633 4.18215949 3.5367819 8.52296926 4.6875 13.375 C4.92533203 14.32117187 5.16316406 15.26734375 5.40820312 16.2421875 C5.62798828 17.16 5.84777344 18.0778125 6.07421875 19.0234375 C6.27619873 19.85794434 6.47817871 20.69245117 6.6862793 21.55224609 C7.0404652 24.315723 6.6137205 26.29324875 6 29 C5.85843072 30.91042776 5.75525298 32.82395604 5.68359375 34.73828125 C5.64169922 35.80498047 5.59980469 36.87167969 5.55664062 37.97070312 C5.51732422 39.07349609 5.47800781 40.17628906 5.4375 41.3125 C5.37272461 42.99569336 5.37272461 42.99569336 5.30664062 44.71289062 C5.20085213 47.47514569 5.09876328 50.2374863 5 53 C4.67 53 4.34 53 4 53 C3.97812622 51.93023926 3.97812622 51.93023926 3.95581055 50.83886719 C3.64269847 37.05308452 2.9998806 23.60562609 0.62109375 10.01171875 C0.04365671 6.64293997 -0.1252532 3.42540271 0 0 Z " fill="#8CB1B3" transform="translate(451,39)"/>
<path d="M0 0 C5.94 3.465 5.94 3.465 12 7 C11.01 7.495 11.01 7.495 10 8 C10 8.66 10 9.32 10 10 C8.35 10.66 6.7 11.32 5 12 C4.16180842 10.37750059 3.3295884 8.75191503 2.5 7.125 C2.0359375 6.22007812 1.571875 5.31515625 1.09375 4.3828125 C0 2 0 2 0 0 Z " fill="#BDB4B7" transform="translate(266,492)"/>
<path d="M0 0 C2.24956302 2.24956302 3.00510965 4.06323263 4.1875 7 C4.55230469 7.886875 4.91710937 8.77375 5.29296875 9.6875 C6 12 6 12 5 14 C3.68181446 12.56771184 2.37063296 11.12897516 1.0625 9.6875 C0.33160156 8.88699219 -0.39929688 8.08648437 -1.15234375 7.26171875 C-3 5 -3 5 -4 2 C-2.68 1.34 -1.36 0.68 0 0 Z " fill="#C5909B" transform="translate(156,134)"/>
<path d="M0 0 C3 2 3 2 3.43359375 4.0234375 C3.44420681 10.41250067 3.44420681 10.41250067 1.0625 13.5625 C-1 15 -1 15 -2 15 C-1.85816304 13.24967156 -1.71136571 11.49974466 -1.5625 9.75 C-1.48128906 8.77546875 -1.40007812 7.8009375 -1.31640625 6.796875 C-1.04925416 4.43538247 -0.64628032 2.28098935 0 0 Z " fill="#D0A3A8" transform="translate(187,54)"/>
<path d="M0 0 C-1.65863505 4.32504836 -4.871041 7.09418825 -8.125 10.25 C-8.68832031 10.80429687 -9.25164062 11.35859375 -9.83203125 11.9296875 C-11.21686028 13.29104485 -12.60783204 14.64614859 -14 16 C-14.66 15.67 -15.32 15.34 -16 15 C-3.18181818 0 -3.18181818 0 0 0 Z " fill="#E0DEDC" transform="translate(168,27)"/>
<path d="M0 0 C5.55216953 2.52371342 8.514344 7.20847864 12 12 C8.67852297 12 8.02032019 11.57859297 5.4375 9.6875 C4.83808594 9.25824219 4.23867187 8.82898438 3.62109375 8.38671875 C2 7 2 7 0 4 C0 2.68 0 1.36 0 0 Z " fill="#C9939C" transform="translate(154,170)"/>
<path d="M0 0 C0.33 0 0.66 0 1 0 C1.103125 1.155 1.20625 2.31 1.3125 3.5 C1.68363602 6.6771493 2.42458686 9.25374161 3.6875 12.1875 C4.91124559 15.17037987 5.07398604 15.72682076 4.1875 19 C3.5996875 19.99 3.5996875 19.99 3 21 C-0.08197463 16.37703806 -0.1277141 12.68513877 -0.0625 7.3125 C-0.05798828 6.61060547 -0.05347656 5.90871094 -0.04882812 5.18554688 C-0.03706927 3.45699462 -0.01913454 1.72848635 0 0 Z " fill="#B3B0B2" transform="translate(254,441)"/>
<path d="M0 0 C3.2531655 3.74114033 5.44374911 8.31315138 7 13 C6.67 13.66 6.34 14.32 6 15 C4.84852339 13.73427767 3.70400686 12.46222094 2.5625 11.1875 C1.92441406 10.47980469 1.28632813 9.77210938 0.62890625 9.04296875 C-1 7 -1 7 -2 4 C-1.34 4 -0.68 4 0 4 C0 2.68 0 1.36 0 0 Z " fill="#E7D8D7" transform="translate(152,212)"/>
<path d="M0 0 C6.6 0.33 13.2 0.66 20 1 C16.20836973 3.52775351 13.19125969 3.22443035 8.8125 3.125 C8.06291016 3.11597656 7.31332031 3.10695313 6.54101562 3.09765625 C4.69387346 3.07412578 2.84689588 3.03825561 1 3 C0.67 2.01 0.34 1.02 0 0 Z " fill="#A6A2A5" transform="translate(165,286)"/>
<path d="M0 0 C0.99 0.66 1.98 1.32 3 2 C3 2.66 3 3.32 3 4 C-7.56 4 -18.12 4 -29 4 C-29 3.67 -29 3.34 -29 3 C-19.43 3 -9.86 3 0 3 C0 2.01 0 1.02 0 0 Z " fill="#D0CACD" transform="translate(467,279)"/>
<path d="M0 0 C0.99 0 1.98 0 3 0 C3.33 0.99 3.66 1.98 4 3 C1.03 6.3 -1.94 9.6 -5 13 C-5 9.51038791 -4.09620626 7.88519705 -2.5 4.8125 C-2.0359375 3.91144531 -1.571875 3.01039063 -1.09375 2.08203125 C-0.7328125 1.39496094 -0.371875 0.70789063 0 0 Z " fill="#D2DADB" transform="translate(488,217)"/>
<path d="M0 0 C3.3 0.99 6.6 1.98 10 3 C10 3.66 10 4.32 10 5 C4.06 5.33 -1.88 5.66 -8 6 C-8 5.34 -8 4.68 -8 4 C-4.37 4 -0.74 4 3 4 C2.01 3.01 1.02 2.02 0 1 C0 0.67 0 0.34 0 0 Z " fill="#575555" transform="translate(490,313)"/>
<path d="M0 0 C0.33 0 0.66 0 1 0 C1 5.28 1 10.56 1 16 C0.34 16.33 -0.32 16.66 -1 17 C-2.87978657 14.26822383 -3.01655381 13.11615725 -2.5390625 9.765625 C-2.23742187 8.60546875 -1.93578125 7.4453125 -1.625 6.25 C-1.18027344 4.49429687 -1.18027344 4.49429687 -0.7265625 2.703125 C-0.48679687 1.81109375 -0.24703125 0.9190625 0 0 Z " fill="#BBB6B6" transform="translate(389,440)"/>
<path d="M0 0 C0 0.66 0 1.32 0 2 C3.63 2 7.26 2 11 2 C10.34 3.32 9.68 4.64 9 6 C8.34 5.67 7.68 5.34 7 5 C7.33 4.67 7.66 4.34 8 4 C3.05 3.67 -1.9 3.34 -7 3 C-7 2.34 -7 1.68 -7 1 C-4.50935112 0.31292445 -2.62113708 0 0 0 Z " fill="#313030" transform="translate(151,315)"/>
<path d="M0 0 C0.33 0 0.66 0 1 0 C1.28247668 4.89626238 1.21645835 7.2887019 -2 11 C-2.71162443 12.64797236 -3.39031953 14.31165408 -4 16 C-4.66 16 -5.32 16 -6 16 C-4.25192871 10.53262809 -2.34205919 5.24175152 0 0 Z " fill="#D5B591" transform="translate(175,412)"/>
<path d="M0 0 C-1.47721422 3.45201639 -3.43794001 5.64961936 -6.125 8.25 C-6.84945313 8.95640625 -7.57390625 9.6628125 -8.3203125 10.390625 C-8.87460937 10.92171875 -9.42890625 11.4528125 -10 12 C-10.66 11.67 -11.32 11.34 -12 11 C-10.89718873 9.72799029 -9.79269231 8.45744147 -8.6875 7.1875 C-8.07261719 6.47980469 -7.45773437 5.77210938 -6.82421875 5.04296875 C-2.32122371 0 -2.32122371 0 0 0 Z " fill="#DCDBDB" transform="translate(282,373)"/>
<path d="M0 0 C3.10762182 4.66143273 4.42347909 9.46687729 3.625 15 C3.41875 15.99 3.2125 16.98 3 18 C0.73150334 14.34827367 0.6104049 10.9872882 0.375 6.75 C0.30023438 5.48671875 0.22546875 4.2234375 0.1484375 2.921875 C0.09945313 1.95765625 0.05046875 0.9934375 0 0 Z " fill="#9AB3B4" transform="translate(451,39)"/>
<path d="M0 0 C0.99 0 1.98 0 3 0 C4.71050559 4.97601626 3.00885647 8.42616295 1 13 C0.67 13 0.34 13 0 13 C0 8.71 0 4.42 0 0 Z " fill="#6E9095" transform="translate(477,99)"/>
<path d="M0 0 C0.99 0.33 1.98 0.66 3 1 C-0.9700218 5.21814817 -5.30840284 8.61227103 -10 12 C-8.52278578 8.54798361 -6.56205999 6.35038064 -3.875 3.75 C-3.15054687 3.04359375 -2.42609375 2.3371875 -1.6796875 1.609375 C-1.12539063 1.07828125 -0.57109375 0.5471875 0 0 Z " fill="#DDDADC" transform="translate(411,289)"/>
<path d="M0 0 C-1.44781793 3.44428265 -3.27694609 5.36130962 -6.125 7.75 C-7.21167969 8.67039063 -7.21167969 8.67039063 -8.3203125 9.609375 C-8.87460937 10.06828125 -9.42890625 10.5271875 -10 11 C-10.33 10.01 -10.66 9.02 -11 8 C-9.54712339 6.66072279 -8.08752741 5.32873153 -6.625 4 C-5.81289063 3.2575 -5.00078125 2.515 -4.1640625 1.75 C-2 0 -2 0 0 0 Z " fill="#DBDAD9" transform="translate(345,156)"/>
<path d="M0 0 C3.375 4.5 3.375 4.5 4 8 C3.01 8.495 3.01 8.495 2 9 C1.53348793 11.12576782 1.53348793 11.12576782 1.375 13.5625 C1.30023438 14.38878906 1.22546875 15.21507812 1.1484375 16.06640625 C1.09945313 16.70449219 1.05046875 17.34257812 1 18 C0.67 18 0.34 18 0 18 C0 12.06 0 6.12 0 0 Z " fill="#BC8E94" transform="translate(468,413)"/>
<path d="M0 0 C2.32590854 3.63423209 2.16265833 6.77088331 2 11 C1.01 11.33 0.02 11.66 -1 12 C-1.02687279 10.18757948 -1.04633715 8.37504767 -1.0625 6.5625 C-1.07410156 5.55316406 -1.08570313 4.54382812 -1.09765625 3.50390625 C-1 1 -1 1 0 0 Z " fill="#84A5A5" transform="translate(455,53)"/>
<path d="M0 0 C3.25543229 0.34879632 4.01873107 1.02133261 6.25 3.5625 C7.11625 4.7690625 7.11625 4.7690625 8 6 C3.31908701 6 2.37898396 5.00354129 -1 2 C-0.67 1.34 -0.34 0.68 0 0 Z " fill="#DCD8DA" transform="translate(230,289)"/>
<path d="M0 0 C0 0.99 0 1.98 0 3 C6.93 3.495 6.93 3.495 14 4 C14 4.33 14 4.66 14 5 C8.06 5 2.12 5 -4 5 C-4 4.01 -4 3.02 -4 2 C-2.68 1.34 -1.36 0.68 0 0 Z " fill="#DEDADC" transform="translate(179,277)"/>
<path d="M0 0 C3.81936528 1.55603771 6.26044438 3.95604931 9 7 C9 7.66 9 8.32 9 9 C5.0873016 7.6957672 2.62689759 6.21065261 0 3 C0 2.01 0 1.02 0 0 Z " fill="#C9939C" transform="translate(163,203)"/>
<path d="M0 0 C2.64752004 2.57784846 4.94432065 4.91648098 7 8 C6.125 10.6875 6.125 10.6875 5 13 C3.49439503 10.14589666 2.36783204 7.31875358 1.375 4.25 C0.98441406 3.05117188 0.98441406 3.05117188 0.5859375 1.828125 C0.39257812 1.22484375 0.19921875 0.6215625 0 0 Z " fill="#2F2F2F" transform="translate(347,308)"/>
<path d="M0 0 C0.99 0.33 1.98 0.66 3 1 C3.33 1.99 3.66 2.98 4 4 C1.69 5.98 -0.62 7.96 -3 10 C-2.01 6.7 -1.02 3.4 0 0 Z " fill="#7E999F" transform="translate(484,139)"/>
<path d="M0 0 C0.33 0 0.66 0 1 0 C1 5.61 1 11.22 1 17 C0.67 17 0.34 17 0 17 C-0.22786458 15.01432292 -0.45572917 13.02864583 -0.68359375 11.04296875 C-0.97170735 8.80603607 -0.97170735 8.80603607 -2 6 C-1.0625 2.8125 -1.0625 2.8125 0 0 Z " fill="#192224" transform="translate(502,112)"/>
<path d="M0 0 C4.72727273 4.36363636 4.72727273 4.36363636 5.9375 7.1875 C5.9684375 8.0846875 5.9684375 8.0846875 6 9 C5.34 9.66 4.68 10.32 4 11 C3.32880451 9.5437455 2.66318193 8.08492133 2 6.625 C1.62875 5.81289062 1.2575 5.00078125 0.875 4.1640625 C0 2 0 2 0 0 Z " fill="#1E181A" transform="translate(141,163)"/>
<path d="M0 0 C1.485 0.99 1.485 0.99 3 2 C3.1875 4.625 3.1875 4.625 3 7 C1.02 7.99 1.02 7.99 -1 9 C-0.67 6.03 -0.34 3.06 0 0 Z " fill="#BF9398" transform="translate(187,54)"/>
<path d="M0 0 C0.66 0 1.32 0 2 0 C2.33 1.32 2.66 2.64 3 4 C2.01 4.66 1.02 5.32 0 6 C-0.73606499 9.56769552 -0.73606499 9.56769552 -1 13 C-1.33 13 -1.66 13 -2 13 C-2.16682272 8.07872966 -2.24828052 4.49656104 0 0 Z " fill="#B5B3B1" transform="translate(263,406)"/>
<path d="M0 0 C0 0.66 0 1.32 0 2 C1.32 2.66 2.64 3.32 4 4 C0.37 4 -3.26 4 -7 4 C-3 0 -3 0 0 0 Z " fill="#565556" transform="translate(154,324)"/>
<path d="M0 0 C0 2 0 4 0 6 C-1.98 6 -3.96 6 -6 6 C-2.25 1.125 -2.25 1.125 0 0 Z " fill="#E3E1E1" transform="translate(195,256)"/>
<path d="M0 0 C0.33 0.99 0.66 1.98 1 3 C0.34 3.66 -0.32 4.32 -1 5 C-1 5.99 -1 6.98 -1 8 C-2.65 8.33 -4.3 8.66 -6 9 C-6 7 -6 7 -3.5625 4.5 C-2.716875 3.675 -1.87125 2.85 -1 2 C-0.67 1.34 -0.34 0.68 0 0 Z " fill="#83A5A9" transform="translate(377,519)"/>
<path d="M0 0 C2.4375 0.8125 2.4375 0.8125 5 2 C5.33 2.99 5.66 3.98 6 5 C2.37 4.67 -1.26 4.34 -5 4 C-5 3.67 -5 3.34 -5 3 C-3.02 2.67 -1.04 2.34 1 2 C0.67 1.34 0.34 0.68 0 0 Z " fill="#808081" transform="translate(491,324)"/>
<path d="M0 0 C2.50298434 2.93828597 3.46930939 5.17902761 4 9 C2.35 7.68 0.7 6.36 -1 5 C-0.67 3.35 -0.34 1.7 0 0 Z " fill="#E5CED0" transform="translate(155,218)"/>
<path d="M0 0 C2.91517292 1.07401108 4.77810176 1.77810176 7 4 C6.01 4.33 5.02 4.66 4 5 C3.67 5.99 3.34 6.98 3 8 C2.01 5.36 1.02 2.72 0 0 Z " fill="#D9D9D8" transform="translate(294,154)"/>
<path d="M0 0 C2.64 0.33 5.28 0.66 8 1 C7.01 2.485 7.01 2.485 6 4 C1.125 2.25 1.125 2.25 0 0 Z " fill="#292A2A" transform="translate(219,279)"/>
<path d="M0 0 C0.66 0.33 1.32 0.66 2 1 C2 3.97 2 6.94 2 10 C-0.39119721 7.60880279 -0.59712795 6.30355083 -1 3 C-0.67 2.01 -0.34 1.02 0 0 Z " fill="#CB8D9B" transform="translate(164,101)"/>
<path d="M0 0 C0.66 1.32 1.32 2.64 2 4 C-0.97 6.475 -0.97 6.475 -4 9 C-2.94124926 5.59687262 -1.99097846 2.98646769 0 0 Z " fill="#BCCCCF" transform="translate(486,221)"/>
<path d="M0 0 C0 0.99 0 1.98 0 3 C-2.31 3 -4.62 3 -7 3 C-7 2.34 -7 1.68 -7 1 C-4.50935112 0.31292445 -2.62113708 0 0 0 Z " fill="#4E4C4C" transform="translate(151,315)"/>
<path d="M0 0 C2.46800047 1.15173355 4.04783565 2.04783565 6 4 C5.67 4.99 5.34 5.98 5 7 C3.29115995 5.37660195 1.62553283 3.70680947 0 2 C0 1.34 0 0.68 0 0 Z " fill="#C9C4C6" transform="translate(237,295)"/>
<path d="M0 0 C0.66 1.32 1.32 2.64 2 4 C-0.31 4.66 -2.62 5.32 -5 6 C-3.35 4.02 -1.7 2.04 0 0 Z " fill="#83A9AB" transform="translate(473,207)"/>
<path d="M0 0 C0.33 0 0.66 0 1 0 C1 2.64 1 5.28 1 8 C0.01 8.33 -0.98 8.66 -2 9 C-1.34 6.03 -0.68 3.06 0 0 Z " fill="#C59390" transform="translate(191,39)"/>
</svg>
